<svg width="21" height="20" viewBox="0 0 21 20" fill="none" xmlns="http://www.w3.org/2000/svg">
<path d="M10.4754 5.40528C10.5188 5.37032 10.5642 5.32193 10.6039 5.28013C10.9757 4.88884 11.3632 4.52569 11.7472 4.15469C12.0361 3.87566 12.3127 3.56023 12.6292 3.33149C12.8547 3.1685 13.1404 3.18512 13.3905 3.13052C13.6138 3.07845 13.8376 3.03129 14.0611 2.98065L15.8997 2.58663C16.2104 2.51839 19.1656 1.84768 19.1868 1.85554C19.1738 1.96937 18.6112 2.50179 18.5003 2.60269C18.2197 2.97622 17.7271 3.34836 17.4221 3.70803C17.3754 3.76291 17.2097 3.9313 17.1636 3.9636C16.4456 4.72174 15.7224 5.47203 14.994 6.21436C14.6222 6.58474 14.2543 6.96126 13.8902 7.34381C13.7952 7.44298 13.3413 7.86758 13.3424 7.99825L13.5519 7.8109L13.6186 7.93034C13.5884 7.96712 13.4753 8.1117 13.4468 8.12656C13.355 8.24225 13.2814 8.3291 13.1828 8.43582C13.2989 8.78389 13.4011 8.94596 13.5875 9.24124C13.6255 9.30152 13.7288 9.46224 13.7562 9.52143C13.829 9.62187 13.873 9.67375 13.9553 9.76186C14.5005 9.99496 14.8534 10.0914 15.4255 10.1326L15.453 10.1151L15.4173 10.0281C15.4508 9.98061 15.5056 9.97942 15.5606 9.97539C15.5679 9.97486 15.5752 9.97446 15.5826 9.97418C15.6482 10.0167 15.7215 10.0575 15.7737 10.1215C15.8662 10.2223 16.1715 10.3042 16.2961 10.3428C16.2819 10.4155 16.2897 10.433 16.2501 10.4674C16.176 10.4667 16.055 10.4579 15.9881 10.4839C16.1835 10.5523 16.3685 10.5597 16.542 10.6138C17.5666 10.7744 18.3113 11.2204 19.1519 11.9307C20.4118 12.9952 20.4451 14.1967 19.0656 15.1696C18.0179 15.9085 16.7796 16.345 15.5848 16.5074C15.2707 16.55 15.0551 16.6277 14.7377 16.5396C14.5175 16.614 14.2748 16.6413 14.0507 16.6875C13.5632 16.7881 13.0927 16.851 12.602 16.9096C12.0964 16.97 11.5323 17.1306 11.037 17.194C9.67408 17.516 8.32578 17.9308 6.99796 18.4365C6.60979 18.5872 6.24216 18.7368 5.85894 18.9036C5.61963 19.0077 5.1166 19.285 4.90472 19.3302C5.51075 18.8023 6.23017 18.3661 6.82795 17.8609C6.66267 17.8752 5.88033 17.997 5.79243 17.9635L5.77922 17.9349C5.83443 17.8614 6.02822 17.8391 6.11621 17.8068C6.41875 17.6958 6.75658 17.56 7.04003 17.3827C6.84541 17.3675 5.99799 17.5744 5.74853 17.6234C4.98935 17.7725 4.23706 17.9589 3.47454 18.1059C3.39737 18.1424 2.81151 18.28 2.73276 18.2646C2.77301 18.2015 3.27551 18.055 3.3871 18.0114C3.60512 17.9741 6.47939 16.9353 6.51653 16.882C6.3647 16.8489 4.81278 17.4198 4.51829 17.4785L4.49793 17.4824C3.97317 17.683 3.12552 17.97 2.58925 18.1255C2.63339 18.0338 2.67621 18.0736 2.72724 17.9947L2.69303 17.9616C2.93395 17.8219 3.40649 17.6613 3.67249 17.5335C4.27766 17.2426 4.89187 16.9891 5.50729 16.7379C5.76891 16.6312 6.2367 16.5014 6.4545 16.3569C6.33372 16.3797 6.2827 16.3941 6.16642 16.4409C5.81367 16.5498 5.46132 16.6558 5.10812 16.7619C4.02564 17.0869 2.96833 17.5459 1.89331 17.905C1.50971 18.0311 1.12459 18.1496 0.738103 18.2605C0.534102 18.3167 0.181903 18.3898 0 18.4737C0.271922 18.1002 0.510231 17.5923 0.778113 17.2057C0.803922 17.1684 0.895696 17.0205 0.915583 16.9998C0.993136 16.8359 1.35201 16.32 1.45979 16.1783C1.60123 15.9407 2.12526 15.262 2.17576 15.1271C2.24657 14.8863 2.30831 14.8303 2.45167 14.6521C2.56152 14.5145 2.72386 14.2629 2.83011 14.1086C2.65046 13.9132 2.53651 13.7838 2.33825 13.6166C2.07949 13.4039 1.30344 13.3394 0.989261 13.4402C0.953948 13.4515 0.947276 13.431 0.925598 13.4039C0.956945 13.3206 3.0859 11.4391 3.33396 11.2248C3.98256 10.6646 4.74291 9.93535 5.38958 9.35246L6.09579 8.72563C6.20981 8.62424 6.37069 8.49596 6.46676 8.37804C6.42167 8.37573 6.42386 8.37686 6.38393 8.35071C6.34982 8.12496 6.62055 8.06273 6.1218 7.87347C6.25439 7.86311 6.41131 7.84375 6.54172 7.8597C6.50547 7.78361 6.23991 7.51216 6.17382 7.44608C5.23237 6.50457 3.60594 5.16687 2.47369 4.72548C2.90732 4.68745 3.34122 4.52358 3.77584 4.46856C3.8996 4.45289 4.03862 4.40921 4.16359 4.38287L7.23989 3.73258C7.63361 3.64627 8.03887 3.5836 8.43381 3.48703C8.64307 3.43589 8.87387 3.42506 9.07586 3.33575C9.21885 3.46376 9.55065 4.00575 9.67804 4.20593C9.90213 4.55806 10.2788 5.0541 10.4754 5.40528Z" fill="#101010"/>
<path d="M10.4756 5.40528C10.519 5.37032 10.5644 5.32193 10.6041 5.28013C10.9759 4.88884 11.3634 4.52569 11.7474 4.15469C12.0363 3.87566 12.3129 3.56023 12.6294 3.33149C12.8549 3.1685 13.1406 3.18512 13.3907 3.13052C13.614 3.07845 13.8377 3.03129 14.0613 2.98065L15.8999 2.58663C16.2106 2.51839 19.1658 1.84768 19.187 1.85554C19.174 1.96937 18.6114 2.50179 18.5005 2.60269C18.2199 2.97622 17.7273 3.34836 17.4222 3.70803C17.3756 3.76291 17.2099 3.9313 17.1638 3.9636C16.4458 4.72174 15.7226 5.47203 14.9942 6.21436C14.6224 6.58474 14.2545 6.96126 13.8904 7.34381C13.7953 7.44298 13.3415 7.86758 13.3426 7.99825L13.5521 7.8109L13.6188 7.93034C13.5886 7.96712 13.4755 8.1117 13.447 8.12656C13.3552 8.24225 13.2815 8.3291 13.183 8.43582C13.2991 8.78389 13.4013 8.94596 13.5877 9.24124C13.6257 9.30152 13.729 9.46224 13.7564 9.52143C13.8291 9.62187 13.8732 9.67375 13.9554 9.76186C14.5007 9.99496 14.8536 10.0914 15.4257 10.1326L15.4532 10.1151L15.4175 10.0281C15.451 9.98061 15.5058 9.97942 15.5608 9.97539C15.5681 9.97486 15.5754 9.97446 15.5827 9.97418C15.6484 10.0167 15.7217 10.0575 15.7739 10.1215C15.8664 10.2223 16.1717 10.3042 16.2963 10.3428C16.2821 10.4155 16.2899 10.433 16.2503 10.4674C16.1762 10.4667 16.0552 10.4579 15.9883 10.4839C16.1837 10.5523 16.3687 10.5597 16.5422 10.6138C17.5668 10.7744 18.3115 11.2204 19.1521 11.9307C20.412 12.9952 20.4452 14.1967 19.0658 15.1696C18.0181 15.9085 16.7798 16.345 15.5849 16.5074C15.2709 16.55 15.0552 16.6277 14.7379 16.5396C16.1835 16.2227 17.8861 15.7201 19.1126 14.6833C20.2526 13.7196 19.6931 12.7345 18.8103 11.9938C17.888 11.2199 17.1673 11.012 16.0996 10.8183C16.0468 10.8189 15.9655 10.8056 15.913 10.795C15.3367 10.678 14.7972 10.6949 14.2143 10.7068C14.083 10.5777 13.8487 10.2717 13.7231 10.111C13.542 9.87933 13.3115 9.60661 13.1435 9.36628C13.0489 9.27725 12.4733 8.52629 12.3474 8.3665C12.2837 8.28238 12.2497 8.26724 12.191 8.16623L12.1985 8.12728L12.2476 8.09213C12.3107 8.00243 12.7021 7.64454 12.8008 7.55148L13.9348 6.47341L15.2504 5.19727C15.4104 5.04241 15.7273 4.71845 15.8845 4.59307C16.0905 4.36229 16.3292 4.14711 16.5475 3.93186C17.089 3.39803 17.6471 2.87778 18.1859 2.34094C17.6887 2.49539 17.1005 2.60165 16.5899 2.71287L14.6065 3.15876C14.2654 3.23216 12.9862 3.47067 12.7608 3.62883C12.5373 3.78572 12.3268 4.03436 12.1246 4.23375L11.0478 5.29536C10.8581 5.48218 10.6122 5.73562 10.4164 5.90387C10.2544 5.64951 9.86465 5.1544 9.7548 4.94724C9.48117 4.60584 9.18891 4.17451 8.93274 3.80606L8.70114 3.81953C8.41074 3.9317 7.55906 4.06459 7.19525 4.14565L5.07374 4.59673C4.60615 4.6977 4.06011 4.83822 3.59591 4.89992C3.86492 5.02906 4.08806 5.20079 4.33847 5.37329C5.42696 6.12304 6.31686 7.0741 7.24223 8.10175C7.03956 8.34102 6.47504 8.80448 6.22798 9.01632C5.77234 9.41353 5.31834 9.81367 4.86592 10.2167L2.58736 12.2642C2.28126 12.5396 1.956 12.8769 1.64639 13.1214C2.60904 13.1142 2.82701 13.3645 3.5444 14.0504C3.32987 14.3065 3.08222 14.556 2.85786 14.8042C2.60434 15.0867 2.35949 15.3815 2.12389 15.6879C2.02301 15.8177 1.82734 16.0704 1.74484 16.2094C1.68825 16.2288 1.66986 16.2345 1.61821 16.2688C1.61346 16.2466 1.60642 16.23 1.59894 16.2088C1.4962 16.3119 1.36336 16.571 1.2824 16.588L1.27432 16.5657C1.30631 16.4215 1.50812 16.3836 1.45997 16.1783C1.60141 15.9407 2.12544 15.262 2.17594 15.1271C2.24675 14.8863 2.3085 14.8303 2.45185 14.6521C2.5617 14.5145 2.72405 14.2629 2.8303 14.1086C2.65064 13.9132 2.5367 13.7838 2.33843 13.6166C2.07967 13.4039 1.30362 13.3394 0.989444 13.4402C0.95413 13.4515 0.947459 13.431 0.925781 13.4039C0.957128 13.3206 3.08608 11.4391 3.33415 11.2248C3.98274 10.6646 4.74309 9.93535 5.38977 9.35246L6.09597 8.72563C6.20999 8.62424 6.37088 8.49596 6.46695 8.37804C6.42185 8.37573 6.42405 8.37686 6.38411 8.35071C6.35 8.12496 6.62074 8.06273 6.12198 7.87347C6.25457 7.86311 6.41149 7.84375 6.5419 7.8597C6.50566 7.78361 6.2401 7.51216 6.174 7.44608C5.23256 6.50457 3.60612 5.16687 2.47387 4.72548C2.9075 4.68745 3.3414 4.52358 3.77602 4.46856C3.89978 4.45289 4.0388 4.40921 4.16377 4.38287L7.24007 3.73258C7.6338 3.64627 8.03906 3.5836 8.43399 3.48703C8.64325 3.43589 8.87405 3.42506 9.07604 3.33575C9.21903 3.46376 9.55083 4.00575 9.67823 4.20593C9.90232 4.55806 10.279 5.0541 10.4756 5.40528Z" fill="#A2D723"/>
<path d="M12.6406 8.16655C13.0687 7.73658 13.4207 7.43138 13.929 6.94549C14.9374 5.98172 16.0487 4.85308 17.0992 3.93788C17.1158 3.92335 17.1409 3.94917 17.1639 3.96457C16.4459 4.72271 15.7227 5.473 14.9943 6.21533C14.6225 6.58571 14.2546 6.96223 13.8905 7.34478C13.7954 7.44395 13.3416 7.86855 13.3427 7.99922L13.5521 7.81187L13.6189 7.93131C13.5887 7.96809 13.4756 8.11267 13.4471 8.12753C13.3553 8.24322 13.2816 8.33007 13.1831 8.43679C13.2992 8.78486 13.4014 8.94693 13.5878 9.24221C13.6258 9.30249 13.7291 9.46321 13.7565 9.5224C13.4781 9.25969 13.3502 9.03378 13.108 8.79625C13.0663 8.72477 12.7152 8.26898 12.6406 8.16655Z" fill="#40630D"/>
<path d="M13.3438 7.99986L13.5532 7.8125L13.6199 7.93195C13.5898 7.96872 13.4766 8.1133 13.4481 8.12816C13.4467 8.10662 13.4642 8.0382 13.4699 8.01233C13.4344 7.97475 13.4037 7.99385 13.3438 7.99986Z" fill="#2A3B0E"/>
<path d="M13.957 9.76172C14.5023 9.99482 14.8552 10.0913 15.4273 10.1324L15.4547 10.115L15.4191 10.028C15.4525 9.98047 15.5074 9.97928 15.5624 9.97525C15.5697 9.97472 15.577 9.97432 15.5843 9.97404C15.6499 10.0166 15.7232 10.0573 15.7755 10.1213C15.868 10.2222 16.1732 10.304 16.2979 10.3427C16.2836 10.4154 16.2915 10.4329 16.2518 10.4673C16.1778 10.4665 16.0568 10.4578 15.9899 10.4838C15.7315 10.3659 14.8071 10.3952 14.4783 10.3861C14.3412 10.1627 14.0205 9.97806 13.957 9.76172Z" fill="#40630D"/>
<path d="M15.8869 4.5955C15.9498 4.56162 15.9911 4.52856 16.0569 4.54222C16.055 4.64581 15.4393 5.19522 15.3289 5.30034L13.8801 6.67715C13.476 7.06234 12.939 7.67185 12.5338 7.99505C12.4983 7.99025 12.5005 7.98897 12.4698 7.96477C12.3462 7.97882 12.3746 8.06279 12.25 8.09456C12.3131 8.00486 12.7045 7.64697 12.8032 7.55391L13.9372 6.47584L15.2528 5.19969C15.4128 5.04484 15.7297 4.72088 15.8869 4.5955Z" fill="#B8E123"/>
<path d="M12.6094 8.17087C12.6984 8.04465 12.7761 7.96988 12.8826 7.86984C13.946 6.87175 14.995 5.84918 16.0497 4.83645C16.2081 4.68421 16.2882 4.49067 16.4379 4.33259C16.5092 4.2571 16.5768 4.30725 16.6576 4.282C16.9959 3.9442 17.3465 3.6367 17.7122 3.34865C17.9683 3.13055 18.2134 2.81412 18.4735 2.58594L18.5033 2.6049C18.2227 2.97843 17.7301 3.35057 17.4251 3.71024C17.3785 3.76512 17.2127 3.93351 17.1666 3.96581C17.1436 3.95041 17.1186 3.92459 17.1019 3.93912C16.0515 4.85432 14.9402 5.98296 13.9318 6.94673C13.4235 7.43262 13.0714 7.73782 12.6434 8.16779C12.7179 8.27022 13.0691 8.72601 13.1107 8.79749C12.9716 8.74184 12.7008 8.32449 12.6094 8.17087Z" fill="#8DC613"/>
<path d="M2.33984 13.6172C2.58678 13.6247 2.93573 13.9182 3.15254 14.0905C3.14665 14.1386 2.63492 14.6883 2.56167 14.754C2.55108 14.7635 2.5403 14.7727 2.52933 14.7815C2.50224 14.7497 2.47517 14.6932 2.45326 14.6527C2.56311 14.5151 2.72546 14.2635 2.83171 14.1092C2.65205 13.9138 2.53811 13.7844 2.33984 13.6172Z" fill="#40630D"/>
<path d="M8.70152 3.82117L8.69922 3.78814C8.74283 3.75424 8.75906 3.76013 8.81265 3.75929L8.81814 3.72686L8.73554 3.68693L8.77513 3.70309C8.80668 3.67358 8.91241 3.68218 8.96789 3.67578C9.22089 4.01284 9.51191 4.37745 9.73386 4.7462C9.7694 4.80523 9.7617 4.87581 9.75518 4.94889C9.48156 4.60749 9.18929 4.17616 8.93312 3.8077L8.70152 3.82117Z" fill="#D0ED36"/>
<path d="M12.3502 8.36739L12.3242 8.26104L12.3604 8.22656L12.331 8.23964C12.4382 8.23308 13.1459 9.09542 13.1799 9.2115C13.0759 9.17049 12.9763 8.90806 12.8614 8.929C12.9091 8.9893 13.1533 9.29147 13.1637 9.34785L13.1463 9.36717C13.0516 9.27814 12.4761 8.52718 12.3502 8.36739Z" fill="#B8E123"/>
<path d="M6.125 7.87531C6.25759 7.86495 6.41451 7.84559 6.54492 7.86154C6.58009 7.92611 6.73894 8.04873 6.79968 8.09689C6.74485 8.14198 6.50105 8.33639 6.46996 8.37988C6.42487 8.37757 6.42706 8.3787 6.38713 8.35255C6.35302 8.1268 6.62375 8.06457 6.125 7.87531Z" fill="#40630D"/>
<path d="M2.45169 14.6523C2.4736 14.6928 2.50067 14.7493 2.52776 14.7811C2.43476 14.8933 2.2892 15.0518 2.17578 15.1273C2.24659 14.8865 2.30833 14.8305 2.45169 14.6523Z" fill="#4B8807"/>
<path d="M13.4816 16.3789C13.5331 16.3831 13.6901 16.3773 13.7172 16.3966C13.5901 16.4713 13.5439 16.4558 13.4202 16.4978L13.4353 16.5157C12.632 16.7442 11.8232 16.8743 11.0386 17.1942C9.67561 17.5162 8.32731 17.931 6.99948 18.4367C6.61131 18.5874 6.24369 18.737 5.86047 18.9038C5.62116 19.0079 5.11813 19.2852 4.90625 19.3304C5.51228 18.8025 6.2317 18.3663 6.82948 17.8611C6.66419 17.8754 5.88186 17.9972 5.79396 17.9637L5.78074 17.9351C5.83596 17.8616 6.02975 17.8393 6.11774 17.807C6.42027 17.696 6.75811 17.5602 7.04156 17.3829C7.43134 17.2428 7.71319 17.2128 8.1026 17.1307C8.5575 17.0348 9.01709 16.924 9.47334 16.8354L9.45225 16.9323C9.21392 17.0129 9.02668 17.0807 8.79296 17.1831L8.82467 17.2313L8.94396 17.2407C9.26733 17.1429 9.73667 17.074 10.0773 16.9994C11.1988 16.7535 12.362 16.6081 13.4816 16.3789Z" fill="#8DC613"/>
<path d="M8.57983 17.3672C8.63644 17.3696 8.63315 17.3678 8.68361 17.3961C8.84938 17.4891 9.74611 17.1188 9.85255 17.2271L9.85803 17.2485C9.65675 17.3639 9.32868 17.4167 9.1045 17.474C8.50997 17.6261 7.92232 17.8851 7.33204 18.0435C7.29847 18.0321 7.25906 18.0067 7.22656 17.9876C7.39099 17.921 7.59836 17.8004 7.77487 17.7261C7.99656 17.6328 8.32176 17.5482 8.50924 17.412L8.57983 17.3672Z" fill="#D0ED36"/>
<path d="M8.51041 17.4102L8.50391 17.3739C8.57398 17.2858 8.70155 17.2202 8.79535 17.1836L8.82706 17.2317L8.94634 17.2412C8.83057 17.2764 8.6908 17.3135 8.581 17.3654L8.51041 17.4102Z" fill="#20290B"/>
<path d="M6.9375 18.1824C7.03616 18.06 7.09226 18.0344 7.22516 17.9844C7.25766 18.0034 7.29707 18.0289 7.33064 18.0402C7.19716 18.0846 7.0817 18.1385 6.9375 18.1824Z" fill="#B8E123"/>
<path d="M1.45979 16.1797C1.50794 16.385 1.30613 16.4229 1.27414 16.5671L1.28222 16.5894C1.36317 16.5724 1.49602 16.3133 1.59876 16.2102C1.60624 16.2314 1.61327 16.248 1.61803 16.2702C1.66968 16.2359 1.68807 16.2302 1.74465 16.2108C1.36628 16.8484 0.897341 17.4808 0.490801 18.1571C0.732985 18.067 1.00302 18.0044 1.25192 17.9213C1.85674 17.716 2.45929 17.5002 3.05943 17.274C3.94918 16.9343 4.95428 16.4625 5.83665 16.1853C5.75129 16.2943 5.64752 16.2595 5.58675 16.3423L5.5951 16.4093C5.70676 16.4997 6.04491 16.3343 6.17457 16.3283L6.16642 16.4423C5.81367 16.5512 5.46133 16.6572 5.10812 16.7633C4.02564 17.0883 2.96833 17.5473 1.89331 17.9064C1.50971 18.0325 1.12459 18.151 0.738103 18.2619C0.534102 18.3181 0.181903 18.3912 0 18.4751C0.271922 18.1016 0.510231 17.5937 0.778113 17.2071C0.803922 17.1698 0.895696 17.0219 0.915583 17.0012C0.993136 16.8373 1.35201 16.3214 1.45979 16.1797Z" fill="#8DC613"/>
<path d="M1.46218 16.1797C1.51032 16.385 1.30851 16.4229 1.27653 16.5671L1.28461 16.5894C1.36556 16.5724 1.49841 16.3133 1.60115 16.2102C1.60862 16.2314 1.61566 16.248 1.62041 16.2702C1.5118 16.4136 1.08088 16.9922 0.955018 17.0165L0.917969 17.0012C0.995522 16.8373 1.35439 16.3214 1.46218 16.1797Z" fill="#AADC17"/>
<path d="M7.36901 16.0036C7.44001 15.9796 7.49124 15.9881 7.55733 15.9676C7.80957 15.8894 8.07747 15.8533 8.32653 15.7924L8.33541 15.8156C8.27129 15.9057 8.02574 15.9701 7.92587 16.0033C8.12106 16.0054 8.51426 15.791 8.73954 15.7281C9.07041 15.6356 9.34842 15.5927 9.6853 15.5352C9.687 15.6628 9.74423 15.6374 9.81591 15.6985C9.47512 15.7841 8.48646 16.0228 8.21344 16.1088C7.619 16.2962 4.80647 17.1842 4.49853 17.485C3.97376 17.6856 3.12612 17.9725 2.58984 18.128C2.63399 18.0363 2.67681 18.0761 2.72784 17.9972L2.69363 17.9642C2.93455 17.8244 3.40709 17.6639 3.67309 17.536C4.27826 17.2452 4.89247 16.9916 5.50789 16.7404C5.76951 16.6337 6.2373 16.5039 6.4551 16.3594C6.4669 16.3614 7.18538 16.1187 7.27527 16.1139C7.29722 16.1127 7.35359 16.0665 7.37198 16.0469L7.36901 16.0036Z" fill="#A2D723"/>
<path d="M9.75383 15.3594C9.84844 15.3854 9.9571 15.374 10.0091 15.4243L10.022 15.472C9.90216 15.507 9.80567 15.511 9.68779 15.5337C9.35091 15.5913 9.0729 15.6342 8.74203 15.7266C8.51676 15.7896 8.12356 16.0039 7.92837 16.0019C8.02824 15.9687 8.27379 15.9042 8.33791 15.8142L8.32902 15.791C8.07997 15.8519 7.81207 15.888 7.55983 15.9662C7.49374 15.9867 7.4425 15.9782 7.37151 16.0021L7.37447 16.0455C7.35609 16.0651 7.29972 16.1112 7.27776 16.1124C7.18787 16.1173 6.4694 16.3599 6.45759 16.358C6.33681 16.3808 6.2858 16.3952 6.16951 16.442L6.17766 16.328C6.048 16.334 5.70986 16.4994 5.5982 16.409L5.58984 16.3419C5.65062 16.2592 5.75438 16.294 5.83974 16.185C6.33211 15.9759 7.02443 15.8084 7.53898 15.6659C7.7535 15.6065 8.08472 15.5143 8.29548 15.5023C8.84609 15.5443 9.21635 15.4032 9.75383 15.3594Z" fill="#C2E32B"/>
<path d="M7.36997 16.0039L7.37293 16.0473C7.35454 16.0668 7.29817 16.113 7.27622 16.1142C7.18633 16.1191 6.46786 16.3617 6.45605 16.3598C6.33527 16.3826 6.28425 16.397 6.16797 16.4437L6.17612 16.3298C6.5194 16.2125 7.01636 16.0951 7.36997 16.0039Z" fill="#6FA010"/>
<path d="M10.7779 15.082C11.024 15.0165 11.5078 15.0107 11.7747 14.9864C12.9301 14.881 14.1981 14.8411 15.3573 14.938C14.9338 15.0305 14.3461 15.008 13.9025 15.0511C12.9669 15.1431 12.0339 15.2781 11.1058 15.4558C10.8827 15.4982 10.5106 15.5534 10.2762 15.609C10.2642 15.6005 10.2522 15.592 10.2401 15.5835L10.1968 15.4858L10.1875 15.4517C10.31 15.4074 10.4311 15.3816 10.5564 15.3571C10.7762 15.3279 11.113 15.2937 11.312 15.2125C11.0988 15.1976 11.0482 15.1809 10.8452 15.111L10.8916 15.1138C10.8696 15.0873 10.815 15.088 10.7779 15.082Z" fill="#8DC613"/>
<path d="M8.29297 15.5039C9.0615 15.2641 9.99065 15.2071 10.775 15.082C10.8121 15.0881 10.8666 15.0874 10.8886 15.1139L10.8422 15.111C11.0452 15.1809 11.0958 15.1977 11.3091 15.2126C11.1101 15.2938 10.7733 15.328 10.5534 15.3572C10.4281 15.3817 10.307 15.4074 10.1845 15.4518C10.1352 15.4544 10.0633 15.4526 10.0194 15.4736L10.0066 15.4259C9.95459 15.3755 9.84592 15.387 9.75132 15.3609C9.21383 15.4047 8.84358 15.5459 8.29297 15.5039Z" fill="#AADC17"/>
<path d="M9.75391 15.359C9.90236 15.3008 10.4154 15.2316 10.5653 15.3182L10.5693 15.3379L10.556 15.3553C10.4307 15.3798 10.3096 15.4055 10.1871 15.4499C10.1378 15.4525 10.0659 15.4507 10.022 15.4717L10.0092 15.424C9.95718 15.3736 9.84851 15.3851 9.75391 15.359Z" fill="#B8E123"/>
<path d="M10.0217 15.471C10.0655 15.45 10.1375 15.4519 10.1868 15.4492L10.1961 15.4833C10.0124 15.6038 10.1581 15.6955 9.81811 15.6961C9.74643 15.635 9.6892 15.6604 9.6875 15.5327C9.80537 15.51 9.90186 15.506 10.0217 15.471Z" fill="#8DC613"/>
<path d="M14.5034 16.1836L14.5507 16.234C14.4186 16.2754 13.5423 16.5148 13.437 16.5157L13.4219 16.4978C13.5456 16.4558 13.5919 16.4713 13.7189 16.3966C13.6918 16.3773 13.5348 16.3831 13.4833 16.3789C13.5613 16.3553 13.7838 16.3287 13.8764 16.3146C14.1042 16.2799 14.2795 16.2433 14.5034 16.1836Z" fill="#6FA010"/>
<path d="M9.47422 16.8365C9.57104 16.7924 9.85723 16.7196 9.9593 16.7188L9.96634 16.7364C9.84963 16.8318 9.60152 16.8828 9.45312 16.9334L9.47422 16.8365Z" fill="#617918"/>
<path d="M14.5039 16.1861C14.5807 16.1599 15 16.0579 15.0588 16.0817L15.0415 16.0785C14.9965 16.1492 14.6335 16.2128 14.5512 16.2365L14.5039 16.1861Z" fill="#40630D"/>
<path d="M15.1722 11.3289C15.7699 11.3354 17.0797 11.1128 17.5333 11.5777C17.581 11.6265 17.633 11.8089 17.6582 11.8909C17.6028 12.2731 17.5048 12.556 17.3924 12.9173C17.1875 13.5961 17.0543 14.2594 16.3818 14.3308C15.8375 14.3887 15.2499 14.3193 14.703 14.2946C14.6076 14.3264 14.3773 14.3403 14.2852 14.2965L14.2853 14.2621C14.3672 14.1755 14.4387 14.181 14.5058 14.1065C14.3084 13.684 14.5416 13.2256 14.6827 12.8115C14.7821 12.4923 14.8982 11.9296 15.1376 11.7834C15.2245 11.7304 15.2612 11.6822 15.3305 11.5948L15.3221 11.5878C15.2106 11.6763 15.0998 11.7664 14.9898 11.8581C15.0514 11.6924 15.1267 11.5008 15.1722 11.3289Z" fill="#FDFDFD"/>
<path d="M14.5058 14.1037C14.3084 13.6811 14.5416 13.2227 14.6827 12.8086C14.8315 12.9874 15.3475 12.8158 15.5213 12.9422C15.4593 13.1339 15.4089 13.3148 15.355 13.5105C15.5171 13.5512 15.9956 13.6026 16.1581 13.5604C16.3222 13.5177 16.4226 13.0522 16.5079 12.8468L16.5132 12.8345L16.539 12.8699C16.7187 12.8676 17.2643 12.832 17.3924 12.9145C17.1875 13.5932 17.0543 14.2565 16.3818 14.328C15.8375 14.3858 15.2499 14.3164 14.703 14.2918C14.6076 14.3236 14.3773 14.3375 14.2852 14.2936L14.2853 14.2592C14.3672 14.1726 14.4387 14.1781 14.5058 14.1037Z" fill="#D7D6D6"/>
<path d="M14.5058 14.1055C14.5633 14.1715 14.6323 14.2627 14.703 14.2936C14.6076 14.3254 14.3773 14.3393 14.2852 14.2954L14.2853 14.261C14.3672 14.1744 14.4387 14.18 14.5058 14.1055Z" fill="#5F5F5E"/>
<path d="M15.7625 12.1421L15.776 12.1327C15.9716 11.9998 16.3646 11.9929 16.5794 12.0484C16.795 12.1042 16.5642 12.6785 16.5137 12.8368L16.5084 12.8491C16.4231 13.0545 16.3227 13.52 16.1586 13.5627C15.9961 13.6049 15.5176 13.5535 15.3555 13.5128C15.4094 13.3171 15.4598 13.1362 15.5218 12.9445C15.5896 12.6713 15.67 12.4033 15.7625 12.1421Z" fill="#101010"/>
<path d="M10.6328 11.7368C10.7828 11.7019 10.9851 11.6914 11.1422 11.6712C11.3892 11.6362 11.6357 11.5961 11.8816 11.5508C11.8784 12.0116 11.8984 12.4197 11.9253 12.8779C11.9649 13.3486 12.0013 13.8888 12.0157 14.3606C11.6916 14.3995 11.445 14.403 11.1182 14.4646C11.1037 14.2856 11.0987 14.1685 11.0984 13.9886C10.8666 14.0099 10.4514 14.0314 10.2476 14.0929C10.1609 14.2665 10.0753 14.4327 10.0011 14.6157C9.78124 14.6395 9.30572 14.6752 9.10547 14.723L9.61181 13.7377C9.65167 13.66 9.82292 13.3217 9.85947 13.2752C10.1136 12.7594 10.3713 12.2466 10.6328 11.7368Z" fill="#D7D6D6"/>
<path d="M10.6327 11.7368C10.7827 11.7019 10.985 11.6914 11.1421 11.6712C11.3891 11.6362 11.6356 11.5961 11.8815 11.5508C11.8783 12.0116 11.8983 12.4197 11.9252 12.8779C11.9176 12.9403 11.9195 13.008 11.8906 13.0448C11.7863 13.0571 11.1484 13.1466 11.1063 13.1226L11.0776 13.0414L11.0876 13.3522C10.9686 13.3778 10.6695 13.479 10.5929 13.4187C10.5921 13.3576 10.5952 13.3546 10.6179 13.2986C10.427 13.1296 10.0015 13.385 9.85938 13.2752C10.1135 12.7594 10.3713 12.2466 10.6327 11.7368Z" fill="#FDFDFD"/>
<path d="M11.0875 12.3398C11.0739 12.5395 11.0794 12.8339 11.0786 13.041L11.0885 13.3519C10.9696 13.3774 10.6705 13.4787 10.5938 13.4183C10.5931 13.3572 10.5962 13.3542 10.6189 13.2983C10.7788 12.9817 10.935 12.6622 11.0875 12.3398Z" fill="#101010"/>
<path d="M4.53965 13.8037C4.98695 13.7286 6.11596 12.9267 6.45992 13.2959C6.36339 13.4168 6.23923 13.5359 6.12634 13.6314C6.50881 14.1107 6.87863 14.6033 7.2581 15.079C6.84653 15.1962 6.27001 15.2998 5.83245 15.4046C5.63088 15.1296 5.41628 14.8453 5.22083 14.5653C4.83864 14.9193 4.45061 15.5351 4.03828 15.8289C3.972 15.8761 3.6447 15.951 3.55404 15.9755C3.24363 16.0601 2.93262 16.1413 2.62109 16.2189C2.81126 16.0536 3.02129 15.7888 3.20255 15.5916L4.12155 14.6062C4.30397 14.4089 4.51254 14.1653 4.69654 13.9833C4.65597 13.9379 4.57304 13.8501 4.53965 13.8037Z" fill="#DCDBDC"/>
<path d="M6.93766 11.5384C7.4635 11.4181 7.99075 11.2153 8.5534 11.1055C7.86947 11.7371 7.14414 12.6121 6.4574 13.294C6.11345 12.9248 4.98443 13.7267 4.53713 13.8018C4.30758 13.5482 3.54195 12.6865 3.30859 12.5172C3.74644 12.348 4.21522 12.2691 4.66184 12.1375C4.82353 12.0899 4.98832 12.0452 5.15098 12.0039C5.16412 12.4977 5.41025 12.6598 5.64856 13.0527C5.71407 12.9525 5.97285 12.6773 6.06 12.5793C6.36861 12.2323 6.65566 11.9221 6.93766 11.5384Z" fill="#FDFDFD"/>
<path d="M8.86609 7.69633C8.98148 7.68682 9.03633 7.56505 9.13551 7.54317C9.15616 7.53862 9.33092 7.61365 9.37453 7.62522C9.29137 7.73314 9.21557 7.83152 9.12694 7.93293L9.17839 7.9834C9.08433 8.0827 8.94675 8.19863 8.894 8.3241L8.83284 8.32427C8.54286 8.63079 8.25016 8.93315 7.95479 9.23126C7.8634 9.29265 7.70076 9.46728 7.64064 9.49895C7.54366 9.59041 7.46185 9.65849 7.36038 9.74063C7.30029 9.78134 7.26585 9.78589 7.24251 9.85073L7.29235 9.91203C7.24664 9.95666 7.20067 10.0009 7.15446 10.0447C7.04346 10.1346 6.86165 10.2523 6.77452 10.3478C6.73727 10.4438 6.65469 10.5666 6.64409 10.6047C6.37511 10.7933 6.08023 11.0341 5.82256 11.2178C5.68219 11.3179 5.03323 11.4829 4.85986 11.5008C4.58629 11.5774 4.30839 11.664 4.03516 11.7452C4.18643 11.6439 4.41848 11.4627 4.58022 11.4536L4.57949 11.3976C4.59772 11.3222 4.69565 11.2658 4.75944 11.214C5.10555 10.8962 5.46417 10.6097 5.8158 10.3029C6.00353 10.1391 6.18743 9.97039 6.3786 9.81292L7.46983 8.87653C7.6464 8.72659 7.89935 8.5007 8.07977 8.37316C8.19079 8.25436 8.5559 7.95168 8.68179 7.85445C8.70689 7.81561 8.82562 7.72241 8.86609 7.69633Z" fill="#AADC17"/>
<path d="M6.77452 10.3477C6.73727 10.4437 6.65469 10.5665 6.64409 10.6046C6.37511 10.7932 6.08023 11.034 5.82256 11.2177C5.68219 11.3178 5.03323 11.4828 4.85986 11.5006C4.58629 11.5773 4.30839 11.6638 4.03516 11.7451C4.18643 11.6438 4.41848 11.4625 4.58022 11.4535L4.57949 11.3975C4.59772 11.322 4.69565 11.2656 4.75944 11.2138L4.76487 11.2401C5.11658 11.2348 5.56479 10.709 5.91127 10.6287C6.15778 10.5715 6.38286 10.5657 6.62608 10.4446L6.77452 10.3477Z" fill="#8DC613"/>
<path d="M6.62471 10.4453C6.49328 10.655 5.80454 10.9549 5.57208 11.0362C5.49884 11.0718 5.39362 11.1278 5.32142 11.1558C5.28382 11.179 5.19945 11.1502 5.15293 11.1399C4.91994 11.2823 4.82846 11.3179 4.57812 11.3982C4.59635 11.3227 4.69428 11.2663 4.75807 11.2145L4.7635 11.2408C5.11521 11.2355 5.56342 10.7097 5.9099 10.6294C6.15641 10.5722 6.38149 10.5664 6.62471 10.4453Z" fill="#A2D723"/>
<path d="M5.15234 11.1411C5.33386 11.0105 5.73154 10.7204 5.92459 10.6836L5.93059 10.7069C5.80651 10.8381 5.36532 11.0027 5.31058 11.1221L5.32083 11.157C5.28323 11.1802 5.19886 11.1514 5.15234 11.1411Z" fill="#2A3B0E"/>
<path d="M5.57208 11.0352L5.5802 11.0735C5.48863 11.2199 5.01089 11.3649 4.86578 11.4082C4.77363 11.4317 4.6711 11.466 4.57886 11.4531L4.57812 11.3971C4.82846 11.3168 4.91994 11.2812 5.15293 11.1388C5.19945 11.1492 5.28382 11.1779 5.32142 11.1547C5.39362 11.1267 5.49884 11.0707 5.57208 11.0352Z" fill="#131710"/>
<path d="M8.86575 7.69633C8.98114 7.68682 9.03599 7.56505 9.13517 7.54317C9.15582 7.53862 9.33058 7.61365 9.37419 7.62522C9.29103 7.73314 9.21523 7.83152 9.1266 7.93293L9.17805 7.9834C9.08399 8.0827 8.94641 8.19863 8.89366 8.3241L8.8325 8.32427C8.54252 8.63079 8.24982 8.93315 7.95445 9.23126C7.86306 9.29265 7.70042 9.46728 7.6403 9.49895L7.63672 9.47718C7.66479 9.44662 7.7343 9.23038 7.82261 9.1109C7.98484 8.89144 8.14463 8.71233 8.31876 8.50995L8.32012 8.46845C8.35693 8.41434 8.67846 8.05122 8.76427 7.93949L8.7366 7.9461L8.68145 7.85445C8.70655 7.81561 8.82528 7.72241 8.86575 7.69633Z" fill="#A2D723"/>
<path d="M9.12613 7.93359L9.17758 7.98407C9.08352 8.08337 8.94594 8.19929 8.89319 8.32477L8.83203 8.32493C8.88535 8.21088 9.04621 8.02214 9.12613 7.93359Z" fill="#2A3B0E"/>
<path d="M8.68073 7.85547L8.73588 7.94712L8.76355 7.94051C8.67773 8.05224 8.3562 8.41536 8.31939 8.46947C8.17039 8.55758 7.78509 9.13857 7.63702 9.29722C7.56846 9.37067 7.48041 9.42701 7.40156 9.48402C7.46736 9.3808 7.68686 9.21953 7.76116 9.07087L7.74309 9.05964C7.59284 9.12558 7.33589 9.17766 7.23902 9.29019C7.16806 9.37259 7.13701 9.4048 7.04004 9.44565L7.03125 9.42733C7.08691 9.38727 7.14547 9.34598 7.19389 9.293C7.54174 8.91233 8.03075 8.64897 8.37244 8.27375C8.21351 8.29951 8.1988 8.43368 8.07871 8.37418C8.18973 8.25538 8.55483 7.95271 8.68073 7.85547Z" fill="#D0ED36"/>
<path d="M8.68015 7.85547L8.73529 7.94712C8.66973 7.99611 8.68803 7.99722 8.61811 8.0001L8.61837 7.99282C8.56001 8.02738 8.53749 8.03487 8.50238 8.10612L8.55706 8.0712C8.47688 8.19598 8.43594 8.19207 8.37185 8.27375C8.21293 8.29951 8.19821 8.43368 8.07812 8.37418C8.18915 8.25538 8.55425 7.95271 8.68015 7.85547Z" fill="#B8E123"/>
<path d="M4.75781 11.2135C5.10393 10.8958 5.46254 10.6093 5.81417 10.3025C6.00191 10.1387 6.1858 9.96997 6.37697 9.8125L6.38211 9.94384L6.40327 9.95458L6.51106 9.88013L6.52334 9.89814C6.47657 10.0364 6.08699 10.3235 5.97049 10.4191C5.93859 10.4452 5.77734 10.3858 5.76705 10.393C5.52086 10.5646 4.97742 11.0947 4.76324 11.2398L4.75781 11.2135Z" fill="#D0ED36"/>
<path d="M12.8572 4.20205C13.0252 4.00294 13.4794 3.96037 13.7164 3.9118C14.1588 3.8211 14.6276 3.67302 15.0686 3.61719L15.1085 3.64615L15.1211 3.71651C14.7758 3.8402 14.0209 4.07245 13.759 4.28909L13.5479 4.4661C13.377 4.61131 13.0659 4.84557 12.917 4.98452L12.9935 5.02534C13.0533 4.98774 13.1473 4.91269 13.2078 4.86794C13.2717 4.88343 13.2622 4.86743 13.2906 4.9173C12.8186 5.32552 12.3406 5.72249 11.8568 6.10796C11.6406 6.27907 11.4196 6.46566 11.1935 6.611C11.1298 6.68308 11.0809 6.7458 11.0016 6.75871L10.9591 6.72948C10.9542 6.67951 10.952 6.66502 10.931 6.6225C10.5272 6.96225 10.125 7.30495 9.72426 7.65057C9.56479 7.78835 9.05401 8.24445 8.89453 8.32376C8.94728 8.19829 9.08486 8.08236 9.17892 7.98306C9.87478 7.31244 10.5262 6.59461 11.2058 5.90927C11.2419 5.8562 11.3246 5.78059 11.372 5.73253C11.8702 5.2274 12.3571 4.70402 12.8572 4.20205Z" fill="#92CC15"/>
<path d="M12.8574 4.20205C13.0254 4.00294 13.4796 3.96037 13.7166 3.9118C14.159 3.8211 14.6278 3.67302 15.0688 3.61719L15.1087 3.64615L15.1213 3.71651C14.776 3.8402 14.0211 4.07245 13.7592 4.28909L13.5481 4.4661C13.3772 4.61131 13.0661 4.84557 12.9172 4.98452C12.813 5.04853 12.6797 5.16696 12.5801 5.2498C12.6165 5.14094 12.7369 4.96186 12.8013 4.86393C12.6878 4.93803 12.6549 4.90761 12.5701 4.94867C12.4492 5.091 11.8307 5.66233 11.6959 5.69787C11.646 5.75683 11.3802 6.0244 11.3259 6.03736L11.3652 5.91924C11.316 5.90178 11.3102 5.91495 11.2564 5.93224C11.198 5.99665 11.2395 6.05443 11.1836 6.05227C11.1879 5.98536 11.1866 5.97041 11.206 5.90927C11.2421 5.8562 11.3248 5.78059 11.3722 5.73253C11.8704 5.2274 12.3573 4.70402 12.8574 4.20205Z" fill="#A2D723"/>
<path d="M12.8574 4.20205C13.0254 4.00294 13.4796 3.96037 13.7166 3.9118C14.159 3.8211 14.6278 3.67302 15.0688 3.61719L15.1087 3.64615L15.1213 3.71651C14.776 3.8402 14.0211 4.07245 13.7592 4.28909C13.7071 4.2857 13.6309 4.24863 13.5788 4.22714C13.6682 4.16878 13.7453 4.1139 13.8318 4.04961C13.6883 4.06111 13.1162 4.16428 12.999 4.22737C12.7929 4.42173 11.6497 5.54819 11.5856 5.75103C11.622 5.72998 11.6581 5.70306 11.6959 5.69787C11.646 5.75683 11.3802 6.0244 11.3259 6.03736L11.3652 5.91924C11.316 5.90178 11.3102 5.91495 11.2564 5.93224C11.198 5.99665 11.2395 6.05443 11.1836 6.05227C11.1879 5.98536 11.1866 5.97041 11.206 5.90927C11.2421 5.8562 11.3248 5.78059 11.3722 5.73253C11.8704 5.2274 12.3573 4.70402 12.8574 4.20205Z" fill="#B8E123"/>
<path d="M13.3085 4.42533L13.3295 4.41406L13.5461 4.46832C13.3752 4.61352 13.0641 4.84778 12.9152 4.98673C12.811 5.05074 12.6777 5.16917 12.5781 5.25201C12.6145 5.14316 12.735 4.96408 12.7993 4.86614C12.8373 4.85314 13.2149 4.49876 13.3085 4.42533Z" fill="#8DC613"/>
<path d="M12.5664 4.94856C12.7289 4.7267 13.057 4.35141 13.3068 4.423C13.2133 4.49643 12.8356 4.85081 12.7976 4.86382C12.6841 4.93791 12.6512 4.9075 12.5664 4.94856Z" fill="#D0ED36"/>
<path d="M13.5754 4.22656C13.6275 4.24805 13.7037 4.28513 13.7558 4.28851L13.5447 4.46553L13.3281 4.41128C13.3682 4.36361 13.5171 4.26857 13.5754 4.22656Z" fill="#8DC613"/>
<path d="M13.2059 4.86719C13.2699 4.88267 13.2604 4.86668 13.2887 4.91655C12.8168 5.32476 12.3387 5.72174 11.855 6.10721C11.6388 6.27831 11.4178 6.4649 11.1917 6.61025C11.1799 6.5774 11.1838 6.59465 11.1862 6.55655C11.3925 6.35457 11.6924 6.06557 11.9082 5.89233C12.0218 5.79815 12.2184 5.64353 12.3155 5.53765L12.3042 5.50461C12.3885 5.43153 12.5068 5.33626 12.5781 5.24904C12.6777 5.1662 12.8109 5.04777 12.9151 4.98376L12.9917 5.02459C13.0515 4.98698 13.1454 4.91193 13.2059 4.86719Z" fill="#8DC613"/>
<path d="M12.5786 5.24966C12.6782 5.16682 12.8114 5.04839 12.9156 4.98438L12.9922 5.0252C12.7676 5.19786 12.5422 5.36887 12.316 5.53826L12.3047 5.50522C12.389 5.43214 12.5073 5.33688 12.5786 5.24966Z" fill="#20290B"/>
<path d="M11.8901 5.84766L11.9087 5.89435C11.6928 6.06759 11.3929 6.35659 11.1867 6.55857C11.1842 6.59667 11.1804 6.57942 11.1922 6.61227C11.1284 6.68435 11.0795 6.74707 11.0002 6.75998L10.9578 6.73075C10.9529 6.68078 10.9506 6.66629 10.9297 6.62377C11.2493 6.37437 11.5696 6.10158 11.8901 5.84766Z" fill="#131710"/>
<path d="M11.8906 5.84884C11.9207 5.81235 12.2643 5.52866 12.3052 5.50781L12.3165 5.54085C12.2194 5.64674 12.0228 5.80136 11.9092 5.89553L11.8906 5.84884Z" fill="#6FA010"/>
<path d="M12.4882 11.4806L14.8499 11.3164C14.7976 11.4886 14.6717 11.8637 14.6364 12.0256C14.4001 12.0412 14.1274 12.0664 13.8938 12.0695C13.8058 12.3657 13.7199 12.6628 13.6362 12.961C13.4322 12.9132 12.9506 13.0028 12.7839 12.9467C12.868 12.6778 12.9417 12.3862 13.0224 12.1318C12.773 12.1752 12.5202 12.1422 12.2891 12.1878C12.3668 11.9372 12.4246 11.7397 12.4882 11.4806Z" fill="#FDFDFD"/>
<path d="M8.57902 13.418C8.68507 13.6018 9.09557 13.4287 9.30634 13.483C9.13352 13.8847 8.81925 14.3988 8.68105 14.7949C8.37591 14.8715 8.06394 14.9012 7.75782 14.9714C7.69761 14.9852 7.63737 14.9967 7.57628 15.0016C7.55559 14.5507 7.51465 14.1273 7.49219 13.6922C7.68338 13.6815 7.87888 13.6502 8.07083 13.6375C8.14451 13.6326 8.28255 13.6413 8.32466 13.5819C8.34338 13.6642 8.33928 13.8348 8.34009 13.9275C8.42877 13.7495 8.47492 13.597 8.57902 13.418Z" fill="#D7D6D6"/>
<path d="M15.1836 15.4761C15.9348 15.2647 16.6901 15.0439 17.4077 14.6858C17.5941 14.5928 17.8579 14.49 18.0196 14.3457C18.8215 13.6303 18.9589 12.909 18.2852 11.9805C18.591 12.2389 18.9105 12.5635 18.9944 13.042C19.0346 13.2705 18.9699 13.5962 18.8571 13.7754C18.0699 15.0281 16.3943 15.3679 15.228 15.58L15.1836 15.4761Z" fill="#92CC12"/>
<path d="M8.58203 13.4164C8.79475 12.9568 9.00945 12.4791 9.22896 12.0272C9.25232 11.9791 10.0713 11.8403 10.1755 11.8242C9.89993 12.275 9.55122 12.9806 9.30935 13.4815C9.09859 13.4272 8.68808 13.6002 8.58203 13.4164Z" fill="#FDFDFD"/>
<path d="M12.7836 12.9495C12.9503 13.0056 13.432 12.9161 13.6359 12.9638C13.5252 13.4182 13.3753 13.8386 13.2706 14.3051C13.0159 14.3349 12.6279 14.3436 12.3711 14.3428C12.4183 14.1079 12.6928 13.1818 12.7836 12.9495Z" fill="#D7D6D6"/>
<path d="M7.375 12.408C7.63709 12.325 7.99877 12.2793 8.30135 12.1914C8.29278 12.6468 8.31116 13.1249 8.32474 13.5804C8.28263 13.6397 8.1446 13.6311 8.07092 13.636C7.87896 13.6487 7.68346 13.68 7.49227 13.6907C7.46732 13.3676 7.42861 12.6973 7.375 12.408Z" fill="#FDFDFD"/>
<path d="M8.99134 8.53125L9.04647 8.58291C8.36004 9.24776 7.70923 9.9555 7.02178 10.6151C6.75152 10.8744 6.38362 11.2364 6.08203 11.4171C6.19574 11.2504 6.5458 10.7547 6.67506 10.6324L6.64229 10.6063C6.65289 10.5682 6.73547 10.4455 6.77272 10.3494C6.85985 10.2539 7.04166 10.1362 7.15267 10.0464C7.19887 10.0025 7.24484 9.9583 7.29056 9.91367L7.24071 9.85237C7.26405 9.78752 7.29849 9.78298 7.35859 9.74227C7.46005 9.66012 7.54186 9.59205 7.63884 9.50059C7.69896 9.46892 7.8616 9.29429 7.95299 9.23289C8.00563 9.23032 8.02707 9.222 8.06997 9.25459C8.32339 9.0176 8.7067 8.77309 8.99134 8.53125Z" fill="#A2D723"/>
<path d="M7.2928 9.91206L7.33486 9.91016L7.33756 9.93793C7.28384 9.99494 7.22983 10.0515 7.17553 10.1076C7.06536 10.2279 6.7879 10.5433 6.6773 10.6308L6.64453 10.6047C6.65513 10.5666 6.73771 10.4439 6.77496 10.3478C6.86209 10.2523 7.04391 10.1346 7.15491 10.0447C7.20111 10.0009 7.24708 9.95669 7.2928 9.91206Z" fill="#8DC613"/>
<path d="M7.63963 9.50103C7.69975 9.46936 7.86239 9.29473 7.95378 9.23334C8.00642 9.23076 8.02786 9.22244 8.07076 9.25504C7.95566 9.34685 7.48123 9.74931 7.3748 9.75752L7.35938 9.74271C7.46084 9.66056 7.54265 9.59249 7.63963 9.50103Z" fill="#2A3B0E"/>
<path d="M5.30469 5.20813C5.35047 5.1855 5.40258 5.16918 5.45029 5.15234C5.52148 5.20857 5.61861 5.20437 5.70039 5.19132C5.94672 5.38192 6.16352 5.34476 6.42941 5.65636C7.01555 6.34333 7.59754 7.05112 8.13561 7.79465C8.15844 7.82621 8.14005 7.89516 8.12605 7.92651C8.11369 7.92857 8.10135 7.93061 8.08902 7.93267C7.4234 7.22375 6.01342 5.54753 5.30469 5.20813Z" fill="#A2D723"/>
<path d="M11.5547 8.9153C11.7331 8.86849 11.6905 8.85625 11.8156 8.67578C11.8729 8.68366 11.8724 8.7078 11.9216 8.77355L13.0523 10.22C13.187 10.3915 13.3535 10.5825 13.4804 10.7511C13.1473 10.7529 12.985 10.7512 12.7249 10.4239C12.6334 10.3087 12.4983 10.1164 12.4199 9.99043C12.3326 9.91385 11.9874 9.43949 11.9053 9.31877C11.8888 9.30604 11.817 9.22253 11.798 9.20122C11.7147 9.10943 11.6348 9.01157 11.5547 8.9153Z" fill="#87BC15"/>
<path d="M11.9062 9.31641C11.9992 9.33528 11.9794 9.34179 12.0606 9.43889C12.0789 9.34789 12.064 9.35939 12.1105 9.32121C12.2073 9.33238 12.3295 9.44652 12.3576 9.56692L12.3455 9.61582C12.2772 9.60037 12.2558 9.57905 12.2036 9.61137C12.2098 9.73121 12.4272 9.89327 12.4521 9.98223L12.4208 9.98807C12.3335 9.91149 11.9883 9.43713 11.9062 9.31641Z" fill="#A2D723"/>
<path d="M11.5547 8.9153C11.7331 8.86849 11.6905 8.85625 11.8156 8.67578C11.8729 8.68366 11.8724 8.7078 11.9216 8.77355C11.8087 8.85484 11.8494 8.76226 11.7992 8.8483C11.8036 9.0188 11.8936 8.96557 11.9193 9.09654C11.881 9.17143 11.8734 9.15735 11.798 9.20122C11.7147 9.10943 11.6348 9.01157 11.5547 8.9153Z" fill="#6FA010"/>
<path d="M6.15625 5.00892C6.97052 4.81262 7.81774 4.66757 8.63961 4.48047C8.71804 4.5995 8.79792 4.717 8.87924 4.83288L8.83539 4.89849C8.7586 4.82525 8.69677 4.76214 8.6106 4.70603C8.39302 4.71158 8.12216 4.78356 7.89988 4.8157C7.35063 4.89506 6.75537 4.98555 6.21214 5.10468C6.17074 5.06981 6.18184 5.07416 6.15625 5.00892Z" fill="#FDFDFD"/>
<path d="M10.0985 10.2188C10.3449 10.4924 10.6111 10.8161 10.8538 11.0758C11.1177 11.0394 11.4294 11.0515 11.7003 11.044C11.7485 11.0553 11.8254 11.0636 11.8569 11.1036C11.8099 11.1427 11.7801 11.1473 11.7261 11.1645C11.4242 11.1998 11.0491 11.2533 10.7508 11.3141C10.5516 11.0722 10.36 10.8205 10.1763 10.5595C10.1729 10.4194 10.0884 10.4477 10.0985 10.2188Z" fill="#A2D723"/>
<path d="M1.94141 17.0223C2.40033 16.5041 2.57766 16.574 3.14681 16.4141C3.15583 16.4566 3.1691 16.5286 3.1804 16.5674C2.76463 16.7066 2.35151 16.8583 1.94141 17.0223Z" fill="#D0ED36"/>
<path d="M8.86328 7.69717C8.93367 7.6135 9.26256 7.32285 9.3565 7.23572C9.64587 6.96847 9.92902 6.69055 10.2056 6.40234C10.0357 6.73069 9.60122 7.19369 9.35363 7.47274C9.40451 7.44497 9.43513 7.43171 9.4883 7.41172L9.50742 7.43173C9.47585 7.51325 9.42447 7.56425 9.37172 7.62606C9.32811 7.6145 9.15335 7.53947 9.1327 7.54401C9.03352 7.5659 8.97867 7.68767 8.86328 7.69717Z" fill="#8DC613"/>
<path d="M9.46917 10.9062C9.53036 10.9556 9.74391 11.2196 9.80673 11.2954C9.63067 11.321 9.48644 11.3472 9.3122 11.3876C9.20238 11.4278 9.09176 11.4645 8.98047 11.4975C9.20649 11.2766 9.28705 11.1842 9.46917 10.9062Z" fill="#A2D723"/>
<path d="M4.08088 16.1602C4.11897 16.1915 4.11968 16.1887 4.14198 16.2371C3.82616 16.3454 3.49035 16.4529 3.17813 16.5683C3.16683 16.5295 3.15356 16.4575 3.14453 16.415C3.37368 16.3319 3.81961 16.2365 4.08088 16.1602Z" fill="#8DC613"/>
<path d="M10.1739 10.5589L10.1635 10.5477C10.0813 10.4568 9.44242 9.60883 9.4375 9.52344C9.56397 9.59005 9.97588 10.0809 10.096 10.2182C10.0859 10.4471 10.1704 10.4188 10.1739 10.5589Z" fill="#D0ED36"/>
<path d="M7.45741 16.5826C7.405 16.6167 6.97812 16.7792 6.91261 16.7984L6.89062 16.7775C6.94144 16.5584 7.30585 16.4532 7.47199 16.4865C7.44838 16.546 7.4534 16.5152 7.45741 16.5826Z" fill="#131710"/>
<path d="M14.5234 15.6076C14.7442 15.5602 14.9632 15.5099 15.1856 15.4766L15.2301 15.5805C14.9934 15.6279 14.798 15.6631 14.5587 15.6912L14.5234 15.6076Z" fill="#8DC613"/>
<path d="M5.44922 5.14956C5.62301 5.09343 5.98239 5.02284 6.15543 5.00781C6.18102 5.07305 6.16992 5.0687 6.21132 5.10357C6.03541 5.12471 5.87417 5.15497 5.69932 5.18854C5.61754 5.20159 5.52041 5.20579 5.44922 5.14956Z" fill="#D7D6D6"/>
<path d="M13.7461 15.7454C13.9722 15.6611 14.2798 15.641 14.5205 15.6094L14.5558 15.693C14.303 15.731 14.0157 15.7823 13.764 15.8093L13.7461 15.7454Z" fill="#6FA010"/>
<path d="M4.08203 16.1601C4.39841 16.0524 4.69453 16.0129 4.99844 15.9102C4.80306 16.0385 4.35399 16.2158 4.14313 16.2371C4.12084 16.1887 4.12012 16.1915 4.08203 16.1601Z" fill="#617918"/>
<path d="M9.1149 10.1602C9.172 10.2133 9.20247 10.2901 9.17739 10.3749C9.10196 10.4481 9.0039 10.4664 8.90657 10.5063C8.87908 10.5207 8.89365 10.5159 8.85938 10.5076C8.86758 10.4014 9.04258 10.2391 9.1149 10.1602Z" fill="#8E9087"/>
<path d="M11.6992 11.0441C11.8564 11.0142 12.2062 11.0253 12.3767 11.0261L12.2965 11.0996C12.0999 11.1274 11.9233 11.1508 11.7249 11.1646C11.7789 11.1474 11.8088 11.1428 11.8558 11.1037C11.8243 11.0637 11.7473 11.0554 11.6992 11.0441Z" fill="#8DC613"/>
<path d="M7.47111 16.4862C7.60061 16.4458 7.98785 16.2756 8.07344 16.309L8.0788 16.3418C8.02064 16.423 7.56528 16.5506 7.45652 16.5822C7.45252 16.5149 7.44749 16.5457 7.47111 16.4862Z" fill="#2A3B0E"/>
<path d="M15.0664 3.61942C15.2066 3.55497 15.3508 3.53376 15.4978 3.50781C15.508 3.56682 15.5076 3.54382 15.4822 3.60876C15.3612 3.64667 15.2402 3.68332 15.1189 3.71875L15.1063 3.64838L15.0664 3.61942Z" fill="#AADC17"/>
<path d="M18.2969 13.6359C18.4184 13.4549 18.4597 13.291 18.5506 13.1641L18.5705 13.1675C18.5566 13.4094 18.4837 13.5189 18.3532 13.6873L18.2969 13.6359Z" fill="#6FA010"/>
<path d="M13.207 4.86673C13.3549 4.75551 13.5565 4.5966 13.7137 4.51172C13.64 4.63569 13.3962 4.89065 13.2898 4.91609C13.2615 4.86621 13.271 4.88221 13.207 4.86673Z" fill="#6FA010"/>
<path d="M17.9688 13.9946C18.0993 13.8774 18.1788 13.7772 18.2946 13.6367L18.3509 13.6881C18.2274 13.8428 18.1528 13.9193 18.0048 14.0403L17.9688 13.9946Z" fill="#2A3B0E"/>
<path d="M12.3771 11.0236C12.4571 11.0249 12.5392 11.0248 12.6189 11.0282C12.6816 11.0225 12.8518 11.0156 12.9035 11.0492C12.7721 11.0829 12.4935 11.0916 12.353 11.0919L12.2969 11.0971L12.3771 11.0236Z" fill="#2A3B0E"/>
<path d="M12.3771 11.0234C12.4571 11.0247 12.5392 11.0246 12.6189 11.0281C12.5383 11.0867 12.4467 11.0608 12.353 11.0917L12.2969 11.097L12.3771 11.0234Z" fill="#617918"/>
<path d="M8.99219 8.5281C9.09637 8.41015 9.27595 8.27081 9.40483 8.19922C9.34232 8.27624 9.12081 8.54347 9.04731 8.57975L8.99219 8.5281Z" fill="#617918"/>
<path d="M15.4999 3.50653C15.6253 3.46815 15.8461 3.41559 15.9735 3.39844C15.8053 3.4934 15.6633 3.54958 15.4844 3.60747C15.5098 3.54253 15.5101 3.56553 15.4999 3.50653Z" fill="#6FA010"/>
<path d="M8.87979 4.83203C8.95835 4.91322 9.03583 5.0317 9.10419 5.12919L9.04527 5.16367C8.98106 5.07652 8.90333 4.98285 8.83594 4.89764L8.87979 4.83203Z" fill="#B0B6B6"/>
<path d="M13.7638 15.8061C13.652 15.8076 13.4482 15.8158 13.3477 15.7739C13.4853 15.7404 13.6098 15.7691 13.7459 15.7422L13.7638 15.8061Z" fill="#40630D"/>
<path d="M18.0076 14.0418C17.9599 14.0892 17.8377 14.2018 17.7773 14.1749C17.8146 14.0926 17.902 14.0467 17.9716 13.9961L18.0076 14.0418Z" fill="#131710"/>
<path d="M9.10188 5.12891C9.19855 5.25211 9.23118 5.30977 9.28232 5.47179C9.20166 5.3701 9.12187 5.26727 9.04297 5.16338L9.10188 5.12891Z" fill="#5F5F5E"/>
<path d="M12.3605 17.1427C12.6761 17.2687 13.0523 17.1582 13.3992 17.1406C13.4656 17.1973 13.4981 17.2286 13.584 17.2214C13.1133 17.4174 12.5085 17.5345 12.0174 17.6555C11.8255 17.7028 11.5877 17.7241 11.4023 17.7816C11.4113 17.7237 11.409 17.6697 11.409 17.6107C11.4993 17.558 11.6093 17.5256 11.7139 17.4686L11.7221 17.438L11.6667 17.4234L11.6332 17.3285C11.8717 17.296 12.1296 17.2251 12.3605 17.1427Z" fill="#2A3B0E"/>
<path d="M3.21484 10.9861C3.34891 10.8301 3.47998 10.5364 3.64496 10.3822C3.93915 10.107 4.19709 10.0562 4.5379 9.80469L4.55455 9.9058C4.15322 10.3139 3.73533 10.6951 3.30256 11.0478C3.27266 11.0162 3.24977 11.0061 3.21484 10.9861Z" fill="#AADC17"/>
<path d="M4.75504 18.0509C4.79062 18.0499 4.7981 18.0543 4.83215 18.0644L4.83608 18.0916C4.79947 18.12 4.38147 18.262 4.3062 18.2741C3.96071 18.33 3.58499 18.68 3.26916 18.7121C3.20961 18.693 3.22756 18.7097 3.19141 18.6554C3.29062 18.3745 4.45573 18.2046 4.75504 18.0509Z" fill="#101010"/>
<path d="M18.0885 10.6894L18.1147 10.6797C18.1867 10.7405 18.3481 11.1304 18.4031 11.2479L18.3969 11.2738L18.345 11.244C18.2388 11.1657 18.111 11.0851 18.0008 11.0118C17.9675 10.9283 17.9235 10.8428 17.9304 10.7574C17.9863 10.6969 18.0054 10.7098 18.0885 10.6894Z" fill="#20290B"/>
<path d="M2.6962 17.9609L2.73042 17.994C2.67939 18.0729 2.63656 18.033 2.59242 18.1248C2.52876 18.1711 1.63277 18.4977 1.55469 18.4846C1.63464 18.3766 2.54219 18.0091 2.6962 17.9609Z" fill="#AADC17"/>
<path d="M3.12064 9.58594C3.12398 9.61501 3.12806 9.65055 3.10931 9.67207C2.94268 9.86307 2.86884 10.0896 2.74969 10.3207C2.69175 10.3653 2.63693 10.3605 2.56892 10.3644C2.51408 10.1018 2.82527 9.95467 2.94671 9.79787C3.00452 9.72322 3.05767 9.65433 3.12064 9.58594Z" fill="#131710"/>
<path d="M15.586 9.97734C15.5824 9.64148 15.7233 9.60548 15.9097 9.80902C15.8757 9.96027 15.8733 10.027 15.7772 10.1246C15.7249 10.0606 15.6516 10.0199 15.586 9.97734Z" fill="#6FA010"/>
<path d="M15.885 16.5625L15.9064 16.577L15.8997 16.6139C15.5189 16.8311 15.3893 16.7914 15.0119 16.924L14.9805 16.9066L14.9825 16.8753C15.2144 16.7148 15.7048 16.6944 15.885 16.5625Z" fill="#40630D"/>
<path d="M13.3984 17.1415C13.488 17.1238 14.1773 16.9657 14.2133 16.9729L14.2058 17.0062C14.1339 17.0389 14.1036 17.0247 14.0332 17.0738C13.9082 17.1612 13.7249 17.1882 13.5832 17.2223C13.4973 17.2295 13.4648 17.1981 13.3984 17.1415Z" fill="#101010"/>
<path d="M16.2961 10.3438C16.3993 10.3622 17.0195 10.5583 17.0654 10.6245C16.9053 10.6085 16.4478 10.5043 16.25 10.4683C16.2897 10.4339 16.2818 10.4164 16.2961 10.3438Z" fill="#101010"/>
<path d="M16.4316 16.7305C16.4581 16.7435 16.4696 16.761 16.4903 16.7853C16.5146 16.9471 16.3923 16.9992 16.2912 17.0405C16.2286 17.0155 16.2477 17.0348 16.2148 16.9724C16.2256 16.808 16.3229 16.7623 16.4316 16.7305Z" fill="#20290B"/>
<path d="M13.5547 7.81167C13.607 7.76096 14.0398 7.34841 14.0774 7.32031L14.0776 7.32073C14.0325 7.42951 13.7205 7.78844 13.6214 7.93112L13.5547 7.81167Z" fill="#20290B"/>
<path d="M17.3168 10.3583C17.405 10.3509 17.5068 10.3493 17.5412 10.4671C17.5092 10.5507 17.5076 10.5334 17.4374 10.591L17.412 10.6132C17.2972 10.6088 17.2213 10.4923 17.3168 10.3583Z" fill="#4B8807"/>
<path d="M1.6387 14.3789C1.71858 14.4308 1.73964 14.4387 1.73353 14.5467C1.70304 14.623 1.65252 14.6644 1.59942 14.7178C1.52379 14.6741 1.50204 14.6678 1.49219 14.5679C1.51982 14.4837 1.58091 14.4362 1.6387 14.3789Z" fill="#101010"/>
<path d="M10.8789 17.8705C11.0719 17.7449 11.2043 17.6966 11.4092 17.6133C11.4092 17.6723 11.4115 17.7263 11.4026 17.7842C11.2561 17.8177 11.0235 17.8563 10.8789 17.8705Z" fill="#131710"/>
<path d="M4.53906 9.80481C4.71535 9.6479 4.89923 9.48011 5.10497 9.39453C4.94255 9.56239 4.73385 9.77268 4.55571 9.90592L4.53906 9.80481Z" fill="#A2D723" fill-opacity="0.94902"/>
<path d="M3.21518 10.9883C3.25011 11.0083 3.273 11.0184 3.3029 11.05C3.22814 11.1356 2.92862 11.3888 2.83984 11.4606C2.94622 11.2487 3.06132 11.1362 3.21518 10.9883Z" fill="#A2D723" fill-opacity="0.952941"/>
<path d="M11.6641 17.427C11.5307 17.4545 11.3959 17.4704 11.2608 17.4747L11.2365 17.4301L11.2273 17.4347L11.2344 17.4721L11.207 17.4627L11.2127 17.4378C11.3764 17.3561 11.4571 17.3554 11.6306 17.332L11.6641 17.427Z" fill="#101010"/>
<path d="M9.90531 17.7617C9.97948 17.7747 9.99241 17.7904 10.0001 17.8761C9.97007 17.9665 9.93743 17.9918 9.87749 18.0539C9.81334 18.0459 9.80244 18.026 9.78906 17.9588C9.80844 17.8751 9.85678 17.8246 9.90531 17.7617Z" fill="#A2D723"/>
<path d="M14.4749 9.66037C14.5268 9.65807 14.5305 9.67428 14.5559 9.71893C14.5583 9.84346 14.5188 9.85934 14.4461 9.9103C14.4122 9.8736 14.3837 9.83968 14.3516 9.80043L14.355 9.7644C14.4042 9.72742 14.4302 9.70356 14.4749 9.66037Z" fill="#2A3B0E"/>
<path d="M18.6302 15.7617C18.6965 15.7749 18.7097 15.7854 18.7474 15.837C18.7326 15.936 18.7241 15.9211 18.6624 16.0078C18.6238 16.0248 18.6231 16.0206 18.5849 16.0077L18.5664 15.9538C18.5765 15.8533 18.5825 15.8423 18.6302 15.7617Z" fill="#101010"/>
<path d="M4.74282 8.79609C4.79365 8.79248 4.77012 8.78635 4.81586 8.81571L4.82613 8.87084C4.8039 8.96926 4.79674 8.97974 4.74282 9.05523C4.69762 9.01211 4.67378 8.99358 4.64062 8.93328C4.65656 8.85904 4.68506 8.85292 4.74282 8.79609Z" fill="#2A3B0E"/>
</svg>
