<svg width="225" height="225" viewBox="0 0 225 225" fill="none" xmlns="http://www.w3.org/2000/svg">
<rect width="225" height="225" rx="21" fill="#87E64C"/>
<path d="M116.868 75.0638C117.317 74.7788 117.786 74.3845 118.197 74.0438C122.04 70.8548 126.046 67.8951 130.016 64.8715C133.002 62.5974 135.862 60.0266 139.134 58.1624C141.466 56.834 144.419 56.9695 147.004 56.5245C149.313 56.1001 151.626 55.7157 153.937 55.3031L172.944 52.0917C176.156 51.5356 206.707 46.0693 206.926 46.1334C206.792 47.0611 200.976 51.4003 199.829 52.2227C196.928 55.267 191.836 58.2999 188.682 61.2312C188.2 61.6785 186.486 63.0509 186.01 63.3141C178.588 69.493 171.111 75.6078 163.581 81.6578C159.738 84.6764 155.934 87.745 152.17 90.8628C151.187 91.671 146.496 95.1315 146.507 96.1965L148.672 94.6695L149.362 95.643C149.05 95.9427 147.881 97.1211 147.586 97.2422C146.637 98.1851 145.876 98.8929 144.857 99.7627C146.057 102.599 147.113 103.92 149.041 106.327C149.434 106.818 150.501 108.128 150.785 108.61C151.537 109.429 151.992 109.852 152.843 110.57C158.479 112.47 162.128 113.256 168.042 113.591L168.326 113.449L167.957 112.74C168.303 112.353 168.87 112.343 169.439 112.31C169.514 112.306 169.59 112.303 169.665 112.3C170.344 112.647 171.102 112.979 171.642 113.501C172.598 114.323 175.754 114.99 177.042 115.305C176.895 115.897 176.976 116.04 176.566 116.32C175.801 116.314 174.55 116.243 173.858 116.455C175.878 117.012 177.791 117.072 179.584 117.513C190.177 118.822 197.875 122.457 206.565 128.246C219.59 136.922 219.934 146.714 205.673 154.643C194.842 160.665 182.04 164.223 169.688 165.546C166.442 165.893 164.212 166.526 160.932 165.808C158.655 166.415 156.146 166.637 153.829 167.014C148.79 167.833 143.926 168.346 138.852 168.824C133.626 169.316 127.794 170.625 122.674 171.142C108.584 173.766 94.6455 177.146 80.9185 181.269C76.9057 182.496 73.1052 183.716 69.1435 185.075C66.6695 185.923 61.4692 188.184 59.2788 188.552C65.5439 184.25 72.9812 180.694 79.1611 176.577C77.4523 176.694 69.3646 177.686 68.4559 177.413L68.3193 177.18C68.8901 176.581 70.8934 176.4 71.8031 176.137C74.9307 175.232 78.4232 174.125 81.3535 172.68C79.3415 172.556 70.5809 174.242 68.002 174.641C60.1537 175.856 52.3766 177.375 44.4938 178.574C43.696 178.872 37.6393 179.993 36.8253 179.867C37.2414 179.353 42.4362 178.159 43.5898 177.803C45.8437 177.5 75.5577 169.033 75.9416 168.599C74.3719 168.329 58.3284 172.982 55.2839 173.461L55.0734 173.493C49.6485 175.127 40.8856 177.466 35.3416 178.733C35.798 177.986 36.2407 178.311 36.7683 177.667L36.4145 177.398C38.9052 176.259 43.7903 174.951 46.5401 173.909C52.7963 171.538 59.146 169.472 65.5082 167.425C68.2127 166.555 73.0487 165.497 75.3003 164.32C74.0517 164.506 73.5243 164.623 72.3222 165.004C68.6755 165.892 65.033 166.756 61.3816 167.62C50.191 170.269 39.2606 174.01 28.1471 176.937C24.1815 177.964 20.2002 178.93 16.2047 179.833C14.0957 180.292 10.4547 180.888 8.57422 181.572C11.3853 178.527 13.8489 174.388 16.6183 171.237C16.8851 170.933 17.8339 169.728 18.0394 169.559C18.8412 168.224 22.5512 164.019 23.6654 162.864C25.1276 160.928 30.545 155.396 31.0671 154.297C31.7991 152.334 32.4374 151.877 33.9194 150.426C35.055 149.304 36.7333 147.254 37.8317 145.995C35.9744 144.403 34.7965 143.349 32.7469 141.986C30.0718 140.252 22.0491 139.726 18.8011 140.548C18.4361 140.64 18.3671 140.473 18.143 140.253C18.467 139.574 40.476 124.239 43.0405 122.493C49.7456 117.927 57.606 111.984 64.2913 107.233L71.592 102.125C72.7707 101.298 74.4339 100.253 75.4271 99.2918C74.9609 99.2729 74.9836 99.2822 74.5707 99.069C74.2181 97.2291 77.017 96.722 71.8609 95.1795C73.2316 95.0951 74.8538 94.9373 76.202 95.0673C75.8273 94.4471 73.0819 92.2348 72.3987 91.6963C62.6661 84.023 45.8522 73.1207 34.147 69.5234C38.6299 69.2135 43.1155 67.8779 47.6085 67.4295C48.8879 67.3018 50.3251 66.9458 51.617 66.7312L83.4196 61.4313C87.4899 60.7278 91.6794 60.2171 95.7622 59.4301C97.9256 59.0132 100.312 58.925 102.4 58.1971C103.878 59.2403 107.308 63.6576 108.625 65.289C110.942 68.1589 114.836 72.2016 116.868 75.0638Z" fill="#101010"/>
<path d="M116.866 75.0638C117.315 74.7788 117.784 74.3845 118.194 74.0438C122.038 70.8548 126.043 67.8951 130.014 64.8715C133 62.5974 135.86 60.0266 139.131 58.1624C141.463 56.834 144.417 56.9695 147.002 56.5245C149.311 56.1001 151.623 55.7157 153.934 55.3031L172.942 52.0917C176.154 51.5356 206.704 46.0693 206.923 46.1334C206.789 47.0611 200.973 51.4003 199.826 52.2227C196.926 55.267 191.833 58.2999 188.68 61.2312C188.198 61.6785 186.484 63.0509 186.008 63.3141C178.586 69.493 171.109 75.6078 163.579 81.6578C159.735 84.6764 155.932 87.745 152.168 90.8628C151.185 91.671 146.493 95.1315 146.505 96.1965L148.67 94.6695L149.36 95.643C149.048 95.9427 147.878 97.1211 147.584 97.2422C146.635 98.1851 145.873 98.8929 144.855 99.7627C146.055 102.599 147.111 103.92 149.038 106.327C149.432 106.818 150.499 108.128 150.783 108.61C151.535 109.429 151.99 109.852 152.84 110.57C158.477 112.47 162.126 113.256 168.04 113.591L168.323 113.449L167.955 112.74C168.301 112.353 168.868 112.343 169.436 112.31C169.512 112.306 169.588 112.303 169.663 112.3C170.341 112.647 171.099 112.979 171.64 113.501C172.596 114.323 175.751 114.99 177.04 115.305C176.893 115.897 176.974 116.04 176.564 116.32C175.799 116.314 174.548 116.243 173.856 116.455C175.876 117.012 177.788 117.072 179.581 117.513C190.174 118.822 197.872 122.457 206.563 128.246C219.587 136.922 219.931 146.714 205.671 154.643C194.84 160.665 182.038 164.223 169.686 165.546C166.44 165.893 164.21 166.526 160.93 165.808C175.874 163.225 193.475 159.13 206.154 150.68C217.94 142.826 212.156 134.797 203.029 128.76C193.494 122.453 186.044 120.759 175.007 119.18C174.461 119.184 173.62 119.077 173.078 118.99C167.12 118.036 161.542 118.174 155.516 118.271C154.159 117.219 151.737 114.725 150.439 113.416C148.566 111.527 146.183 109.305 144.447 107.346C143.468 106.62 137.518 100.5 136.217 99.1977C135.558 98.5122 135.206 98.3888 134.6 97.5655L134.677 97.248L135.185 96.9616C135.837 96.2305 139.884 93.3138 140.904 92.5553L152.627 83.769L166.228 73.3685C167.881 72.1064 171.158 69.4661 172.783 68.4442C174.912 66.5634 177.38 64.8097 179.636 63.0554C185.235 58.7047 191.004 54.4647 196.574 50.0894C191.435 51.3482 185.354 52.2142 180.075 53.1206L159.571 56.7546C156.045 57.3529 142.82 59.2967 140.49 60.5857C138.179 61.8644 136.003 63.8908 133.913 65.5158L122.781 74.1679C120.82 75.6905 118.278 77.756 116.254 79.1273C114.579 77.0542 110.55 73.0191 109.414 71.3307C106.586 68.5484 103.564 65.033 100.916 62.0301L98.5217 62.1399C95.5195 63.0541 86.7149 64.1372 82.9539 64.7978L61.0219 68.4741C56.188 69.297 50.5431 70.4423 45.7442 70.9451C48.5252 71.9976 50.832 73.3972 53.4207 74.803C64.6735 80.9135 73.8732 88.6647 83.4395 97.04C81.3444 98.99 75.5084 102.767 72.9543 104.494C68.244 107.731 63.5505 110.992 58.8735 114.277L35.3179 130.964C32.1535 133.208 28.791 135.957 25.5902 137.95C35.542 137.891 37.7953 139.931 45.2117 145.521C42.9939 147.609 40.4337 149.642 38.1143 151.665C35.4935 153.967 32.9622 156.37 30.5265 158.867C29.4837 159.925 27.4609 161.985 26.608 163.117C26.023 163.275 25.8329 163.322 25.2989 163.602C25.2497 163.42 25.177 163.285 25.0997 163.112C24.0376 163.953 22.6643 166.065 21.8274 166.203L21.7438 166.021C22.0745 164.846 24.1608 164.537 23.6631 162.864C25.1252 160.928 30.5426 155.396 31.0647 154.297C31.7967 152.334 32.435 151.878 33.917 150.426C35.0526 149.304 36.7309 147.254 37.8293 145.995C35.9721 144.403 34.7941 143.349 32.7445 141.986C30.0695 140.252 22.0467 139.726 18.7988 140.548C18.4337 140.64 18.3647 140.473 18.1406 140.253C18.4647 139.574 40.4736 124.239 43.0381 122.493C49.7433 117.927 57.6037 111.984 64.2889 107.233L71.5897 102.125C72.7684 101.298 74.4316 100.253 75.4247 99.2918C74.9586 99.2729 74.9813 99.2822 74.5684 99.069C74.2158 97.2292 77.0146 96.722 71.8586 95.1795C73.2292 95.0951 74.8514 94.9373 76.1996 95.0673C75.8249 94.4471 73.0796 92.2348 72.3963 91.6963C62.6637 84.023 45.8498 73.1207 34.1447 69.5234C38.6275 69.2135 43.1131 67.8779 47.6062 67.4295C48.8856 67.3018 50.3228 66.9458 51.6147 66.7312L83.4172 61.4313C87.4875 60.7278 91.6771 60.2171 95.7599 59.4301C97.9232 59.0132 100.309 58.925 102.397 58.1971C103.876 59.2404 107.306 63.6576 108.623 65.289C110.939 68.1589 114.833 72.2017 116.866 75.0638Z" fill="#A2D723"/>
<path d="M139.25 97.5572C143.675 94.053 147.315 91.5655 152.57 87.6056C162.994 79.7508 174.483 70.5524 185.342 63.0936C185.514 62.9751 185.773 63.1856 186.011 63.311C178.589 69.4899 171.112 75.6047 163.582 81.6548C159.739 84.6733 155.935 87.742 152.171 90.8598C151.188 91.668 146.496 95.1285 146.508 96.1935L148.673 94.6665L149.363 95.64C149.051 95.9397 147.882 97.118 147.587 97.2392C146.638 98.182 145.877 98.8899 144.858 99.7596C146.058 102.596 147.114 103.917 149.042 106.324C149.435 106.815 150.502 108.125 150.786 108.607C147.908 106.466 146.585 104.625 144.082 102.689C143.651 102.107 140.021 98.392 139.25 97.5572Z" fill="#40630D"/>
<path d="M146.508 96.1949L148.673 94.668L149.363 95.6415C149.051 95.9412 147.882 97.1195 147.587 97.2406C147.572 97.0651 147.753 96.5075 147.812 96.2966C147.445 95.9903 147.128 96.146 146.508 96.1949Z" fill="#2A3B0E"/>
<path d="M152.844 110.57C158.48 112.47 162.129 113.256 168.043 113.592L168.327 113.449L167.958 112.74C168.304 112.353 168.871 112.343 169.44 112.311C169.515 112.306 169.591 112.303 169.667 112.301C170.345 112.648 171.103 112.98 171.643 113.501C172.599 114.323 175.755 114.99 177.043 115.305C176.896 115.898 176.977 116.04 176.567 116.321C175.802 116.314 174.551 116.243 173.86 116.455C171.188 115.495 161.632 115.733 158.233 115.659C156.816 113.838 153.499 112.333 152.844 110.57Z" fill="#40630D"/>
<path d="M172.785 68.4443C173.435 68.1682 173.862 67.8988 174.543 68.0101C174.524 68.8543 168.158 73.3321 167.016 74.1888L152.04 85.4098C147.862 88.5491 142.31 93.5166 138.121 96.1507C137.755 96.1115 137.777 96.1011 137.46 95.9039C136.182 96.0184 136.475 96.7028 135.188 96.9617C135.84 96.2306 139.886 93.3138 140.906 92.5554L152.629 83.7691L166.23 73.3685C167.884 72.1065 171.16 69.4662 172.785 68.4443Z" fill="#B8E123"/>
<path d="M138.895 97.5836C139.815 96.5549 140.618 95.9456 141.719 95.1302C152.713 86.9958 163.557 78.6619 174.46 70.4081C176.098 69.1674 176.926 67.59 178.473 66.3017C179.21 65.6864 179.909 66.0951 180.745 65.8893C184.242 63.1362 187.866 60.6301 191.647 58.2825C194.295 56.505 196.829 53.9261 199.518 52.0664L199.826 52.221C196.925 55.2653 191.833 58.2982 188.679 61.2295C188.197 61.6767 186.483 63.0491 186.007 63.3124C185.769 63.1869 185.51 62.9764 185.338 63.0949C174.479 70.5537 162.99 79.7522 152.566 87.6069C147.311 91.5669 143.671 94.0543 139.246 97.5585C140.017 98.3933 143.647 102.108 144.078 102.691C142.64 102.237 139.839 98.8356 138.895 97.5836Z" fill="#8DC613"/>
<path d="M32.7422 141.984C35.295 142.046 38.9024 144.437 41.1438 145.842C41.0829 146.234 35.7927 150.714 35.0354 151.249C34.926 151.327 34.8145 151.402 34.7011 151.473C34.4211 151.214 34.1412 150.754 33.9147 150.424C35.0503 149.302 36.7286 147.252 37.827 145.994C35.9698 144.402 34.7918 143.348 32.7422 141.984Z" fill="#40630D"/>
<path d="M98.5238 62.142L98.5 61.8727C98.9509 61.5965 99.1186 61.6445 99.6727 61.6377L99.7293 61.3733L98.8755 61.0479L99.2847 61.1796C99.6109 60.9391 100.704 61.0092 101.277 60.957C103.893 63.7041 106.902 66.6756 109.196 69.681C109.563 70.1621 109.484 70.7372 109.416 71.3328C106.588 68.5504 103.566 65.0351 100.918 62.0322L98.5238 62.142Z" fill="#D0ED36"/>
<path d="M136.222 99.1946L135.953 98.3279L136.327 98.0469L136.023 98.1534C137.132 98.1 144.448 105.128 144.8 106.074C143.724 105.74 142.695 103.601 141.506 103.772C141.999 104.263 144.524 106.726 144.631 107.185L144.452 107.343C143.473 106.617 137.523 100.497 136.222 99.1946Z" fill="#B8E123"/>
<path d="M71.8594 95.1813C73.2301 95.0968 74.8523 94.939 76.2005 95.069C76.564 95.5952 78.2062 96.5946 78.8342 96.9871C78.2673 97.3546 75.747 98.939 75.4256 99.2935C74.9594 99.2746 74.9821 99.2839 74.5692 99.0707C74.2166 97.2309 77.0154 96.7237 71.8594 95.1813Z" fill="#40630D"/>
<path d="M33.9148 150.426C34.1414 150.755 34.4212 151.216 34.7012 151.475C33.7398 152.39 32.235 153.681 31.0625 154.297C31.7945 152.334 32.4328 151.878 33.9148 150.426Z" fill="#4B8807"/>
<path d="M147.932 164.496C148.465 164.53 150.088 164.483 150.368 164.641C149.055 165.249 148.577 165.123 147.297 165.465L147.454 165.611C139.149 167.473 130.789 168.534 122.677 171.141C108.586 173.765 94.6479 177.145 80.9209 181.268C76.9081 182.495 73.1076 183.715 69.1459 185.074C66.6719 185.922 61.4716 188.183 59.2812 188.55C65.5463 184.249 72.9836 180.693 79.1635 176.576C77.4547 176.693 69.367 177.685 68.4583 177.412L68.3217 177.179C68.8925 176.58 70.8959 176.398 71.8055 176.135C74.9331 175.231 78.4256 174.124 81.3559 172.678C85.3854 171.537 88.2991 171.292 92.3249 170.623C97.0276 169.841 101.779 168.938 106.495 168.217L106.277 169.006C103.814 169.663 101.878 170.216 99.4618 171.051L99.7896 171.443L101.023 171.52C104.366 170.722 109.218 170.161 112.739 169.553C124.334 167.549 136.359 166.364 147.932 164.496Z" fill="#8DC613"/>
<path d="M97.2439 172.528C97.8291 172.547 97.7951 172.533 98.3168 172.764C100.03 173.522 109.301 170.504 110.401 171.386L110.458 171.561C108.377 172.501 104.985 172.932 102.668 173.399C96.5217 174.638 90.4465 176.749 84.3444 178.04C83.9973 177.947 83.5899 177.74 83.2539 177.584C84.9538 177.042 87.0975 176.059 88.9222 175.453C91.2141 174.693 94.576 174.003 96.5141 172.893L97.2439 172.528Z" fill="#D0ED36"/>
<path d="M96.5165 172.898L96.4492 172.602C97.1737 171.884 98.4924 171.349 99.4621 171.051L99.79 171.443L101.023 171.52C99.8263 171.808 98.3813 172.11 97.2462 172.533L96.5165 172.898Z" fill="#20290B"/>
<path d="M80.2812 179.199C81.3012 178.202 81.8812 177.994 83.2551 177.586C83.591 177.741 83.9984 177.949 84.3455 178.041C82.9656 178.402 81.7719 178.842 80.2812 179.199Z" fill="#B8E123"/>
<path d="M23.6654 162.863C24.1631 164.537 22.0769 164.846 21.7462 166.02L21.8297 166.202C22.6666 166.064 24.0399 163.952 25.1021 163.112C25.1794 163.285 25.2521 163.42 25.3012 163.601C25.8352 163.322 26.0253 163.275 26.6103 163.117C22.6987 168.313 17.8509 173.467 13.6481 178.98C16.1518 178.245 18.9434 177.734 21.5164 177.057C27.769 175.384 33.9982 173.626 40.2024 171.782C49.4006 169.014 59.7911 165.168 68.913 162.909C68.0306 163.798 66.9579 163.514 66.3296 164.188L66.4159 164.735C67.5703 165.471 71.066 164.123 72.4064 164.075L72.3222 165.003C68.6755 165.891 65.033 166.755 61.3816 167.62C50.191 170.269 39.2606 174.009 28.1471 176.936C24.1815 177.964 20.2002 178.929 16.2047 179.833C14.0957 180.291 10.4547 180.887 8.57422 181.571C11.3853 178.526 13.8489 174.387 16.6183 171.237C16.8851 170.933 17.8339 169.727 18.0394 169.559C18.8412 168.223 22.5512 164.019 23.6654 162.863Z" fill="#8DC613"/>
<path d="M23.6651 162.863C24.1628 164.537 22.0765 164.846 21.7458 166.02L21.8293 166.202C22.6662 166.064 24.0396 163.952 25.1017 163.112C25.179 163.285 25.2517 163.42 25.3009 163.601C24.1781 164.77 19.7232 169.485 18.4221 169.683L18.0391 169.559C18.8408 168.223 22.5508 164.019 23.6651 162.863Z" fill="#AADC17"/>
<path d="M84.7465 161.419C85.4804 161.224 86.0101 161.293 86.6934 161.126C89.301 160.489 92.0705 160.195 94.6452 159.698L94.7371 159.887C94.0742 160.621 91.5357 161.146 90.5033 161.417C92.5212 161.434 96.586 159.687 98.9149 159.174C102.335 158.42 105.209 158.071 108.692 157.602C108.71 158.642 109.301 158.435 110.042 158.933C106.519 159.631 96.2986 161.576 93.4761 162.277C87.3309 163.804 58.2552 171.041 55.0716 173.492C49.6467 175.127 40.8838 177.466 35.3398 178.733C35.7962 177.986 36.2389 178.31 36.7665 177.667L36.4127 177.398C38.9034 176.259 43.7885 174.95 46.5384 173.909C52.7945 171.538 59.1442 169.471 65.5064 167.424C68.2109 166.555 73.0469 165.497 75.2985 164.32C75.4206 164.335 82.8481 162.358 83.7774 162.318C84.0043 162.308 84.5871 161.932 84.7772 161.773L84.7465 161.419Z" fill="#A2D723"/>
<path d="M109.379 156.18C110.357 156.392 111.48 156.299 112.018 156.709L112.151 157.098C110.912 157.383 109.915 157.415 108.696 157.601C105.214 158.07 102.34 158.419 98.9191 159.173C96.5902 159.686 92.5254 161.433 90.5075 161.416C91.54 161.145 94.0784 160.62 94.7413 159.886L94.6495 159.697C92.0747 160.194 89.3052 160.488 86.6976 161.125C86.0143 161.292 85.4847 161.223 84.7508 161.418L84.7814 161.772C84.5913 161.931 84.0085 162.307 83.7816 162.317C82.8523 162.357 75.4248 164.334 75.3027 164.319C74.0541 164.505 73.5267 164.622 72.3246 165.003L72.4089 164.074C71.0684 164.123 67.5727 165.471 66.4184 164.734L66.332 164.188C66.9603 163.513 68.033 163.797 68.9154 162.909C74.0056 161.204 81.1627 159.839 86.482 158.678C88.6998 158.194 92.1239 157.442 94.3027 157.345C99.9949 157.687 103.823 156.537 109.379 156.18Z" fill="#C2E32B"/>
<path d="M84.7504 161.418L84.781 161.772C84.5909 161.931 84.0082 162.307 83.7812 162.317C82.8519 162.357 75.4244 164.334 75.3024 164.318C74.0537 164.504 73.5264 164.621 72.3242 165.003L72.4085 164.074C75.9573 163.118 81.0948 162.162 84.7504 161.418Z" fill="#6FA010"/>
<path d="M119.959 153.908C122.503 153.375 127.505 153.328 130.264 153.129C142.208 152.27 155.316 151.945 167.3 152.735C162.922 153.489 156.847 153.306 152.261 153.657C142.588 154.407 132.944 155.507 123.349 156.955C121.043 157.301 117.196 157.75 114.773 158.204C114.648 158.135 114.524 158.065 114.399 157.996L113.952 157.199L113.855 156.922C115.122 156.56 116.373 156.35 117.669 156.151C119.942 155.913 123.423 155.634 125.481 154.972C123.276 154.851 122.753 154.714 120.655 154.145L121.134 154.168C120.907 153.952 120.343 153.957 119.959 153.908Z" fill="#8DC613"/>
<path d="M94.3008 157.345C102.246 155.39 111.851 154.925 119.96 153.906C120.343 153.955 120.907 153.95 121.134 154.166L120.655 154.143C122.753 154.712 123.276 154.849 125.481 154.97C123.424 155.632 119.942 155.911 117.669 156.149C116.374 156.348 115.122 156.558 113.856 156.92C113.346 156.941 112.602 156.926 112.149 157.098L112.016 156.708C111.478 156.298 110.355 156.392 109.377 156.179C103.821 156.536 99.9929 157.687 94.3008 157.345Z" fill="#AADC17"/>
<path d="M109.375 156.178C110.91 155.703 116.213 155.139 117.763 155.845L117.804 156.005L117.667 156.147C116.372 156.347 115.12 156.556 113.854 156.918C113.344 156.939 112.6 156.924 112.147 157.096L112.014 156.707C111.476 156.296 110.353 156.39 109.375 156.178Z" fill="#B8E123"/>
<path d="M112.146 157.1C112.599 156.928 113.343 156.943 113.853 156.922L113.949 157.2C112.05 158.182 113.557 158.929 110.042 158.934C109.301 158.436 108.709 158.643 108.691 157.602C109.91 157.417 110.907 157.385 112.146 157.1Z" fill="#8DC613"/>
<path d="M158.474 162.902L158.963 163.313C157.597 163.65 148.538 165.602 147.45 165.609L147.293 165.463C148.572 165.121 149.05 165.247 150.364 164.639C150.084 164.481 148.461 164.528 147.928 164.494C148.735 164.302 151.034 164.085 151.992 163.97C154.347 163.687 156.159 163.389 158.474 162.902Z" fill="#6FA010"/>
<path d="M106.495 168.218C107.496 167.858 110.455 167.265 111.51 167.258L111.583 167.402C110.376 168.18 107.811 168.595 106.277 169.007L106.495 168.218Z" fill="#617918"/>
<path d="M158.477 162.907C159.27 162.694 163.605 161.862 164.213 162.057L164.034 162.03C163.569 162.607 159.816 163.125 158.966 163.318L158.477 162.907Z" fill="#40630D"/>
<path d="M165.389 123.318C171.568 123.371 185.108 121.557 189.798 125.346C190.291 125.744 190.828 127.23 191.089 127.899C190.516 131.013 189.503 133.319 188.341 136.264C186.223 141.795 184.846 147.201 177.894 147.784C172.267 148.255 166.192 147.69 160.538 147.489C159.552 147.748 157.171 147.861 156.219 147.504L156.221 147.224C157.067 146.517 157.806 146.563 158.499 145.956C156.459 142.512 158.87 138.776 160.329 135.401C161.356 132.8 162.556 128.213 165.032 127.022C165.929 126.59 166.309 126.197 167.025 125.485L166.938 125.428C165.786 126.149 164.641 126.883 163.503 127.631C164.14 126.28 164.918 124.719 165.389 123.318Z" fill="#FDFDFD"/>
<path d="M158.499 145.957C156.459 142.513 158.87 138.778 160.329 135.402C161.867 136.86 167.201 135.461 168.998 136.491C168.357 138.054 167.836 139.528 167.278 141.123C168.954 141.455 173.901 141.874 175.581 141.53C177.278 141.182 178.315 137.388 179.198 135.714L179.253 135.614L179.519 135.902C181.376 135.883 187.017 135.593 188.341 136.265C186.223 141.797 184.846 147.203 177.894 147.785C172.267 148.257 166.192 147.691 160.538 147.49C159.552 147.749 157.171 147.863 156.219 147.505L156.221 147.225C157.067 146.519 157.806 146.564 158.499 145.957Z" fill="#D7D6D6"/>
<path d="M158.499 145.957C159.095 146.495 159.807 147.238 160.538 147.49C159.552 147.749 157.171 147.862 156.219 147.505L156.221 147.225C157.067 146.519 157.806 146.564 158.499 145.957Z" fill="#5F5F5E"/>
<path d="M171.485 129.948L171.625 129.872C173.647 128.789 177.71 128.732 179.93 129.185C182.16 129.64 179.773 134.32 179.252 135.61L179.197 135.711C178.314 137.385 177.277 141.178 175.58 141.526C173.9 141.87 168.953 141.451 167.277 141.12C167.835 139.525 168.356 138.05 168.997 136.488C169.698 134.261 170.529 132.078 171.485 129.948Z" fill="#101010"/>
<path d="M118.477 126.661C120.027 126.376 122.119 126.291 123.743 126.126C126.296 125.841 128.845 125.514 131.387 125.145C131.354 128.9 131.561 132.227 131.838 135.96C132.248 139.797 132.624 144.199 132.774 148.045C129.423 148.362 126.874 148.39 123.495 148.892C123.345 147.433 123.293 146.479 123.291 145.013C120.894 145.187 116.602 145.362 114.495 145.863C113.599 147.278 112.713 148.632 111.946 150.124C109.674 150.318 104.758 150.609 102.688 150.998L107.922 142.968C108.334 142.335 110.104 139.577 110.482 139.198C113.109 134.995 115.774 130.815 118.477 126.661Z" fill="#D7D6D6"/>
<path d="M118.483 126.661C120.033 126.376 122.125 126.291 123.749 126.126C126.302 125.841 128.851 125.514 131.393 125.145C131.36 128.9 131.567 132.227 131.844 135.96C131.766 136.469 131.785 137.021 131.487 137.321C130.408 137.421 123.814 138.151 123.379 137.955L123.082 137.293L123.185 139.826C121.956 140.035 118.864 140.86 118.071 140.368C118.064 139.87 118.095 139.846 118.33 139.389C116.357 138.012 111.957 140.094 110.488 139.198C113.115 134.995 115.78 130.815 118.483 126.661Z" fill="#FDFDFD"/>
<path d="M123.171 131.574C123.031 133.201 123.087 135.601 123.078 137.289L123.182 139.822C121.952 140.031 118.86 140.856 118.067 140.364C118.06 139.866 118.091 139.841 118.326 139.385C119.979 136.805 121.594 134.201 123.171 131.574Z" fill="#101010"/>
<path d="M55.4666 143.489C60.0908 142.877 71.7625 136.342 75.3183 139.35C74.3204 140.336 73.0368 141.307 71.8698 142.085C75.8237 145.991 79.6469 150.006 83.5698 153.883C79.3151 154.838 73.355 155.682 68.8316 156.536C66.7477 154.295 64.5292 151.978 62.5087 149.696C58.5576 152.581 54.5462 157.6 50.2836 159.994C49.5984 160.379 46.2148 160.99 45.2775 161.189C42.0685 161.879 38.8534 162.54 35.6328 163.173C37.5987 161.825 39.77 159.667 41.6439 158.06L51.1445 150.029C53.0302 148.422 55.1864 146.436 57.0887 144.952C56.6692 144.583 55.8119 143.868 55.4666 143.489Z" fill="#DCDBDC"/>
<path d="M80.2826 125.044C85.7187 124.064 91.1693 122.411 96.986 121.516C89.9156 126.663 82.4172 133.795 75.3178 139.352C71.762 136.343 60.0903 142.879 55.4662 143.491C53.0931 141.424 45.178 134.401 42.7656 133.022C47.2921 131.643 52.1383 131 56.7554 129.927C58.4269 129.539 60.1305 129.174 61.8121 128.838C61.9479 132.862 64.4924 134.183 66.956 137.386C67.6333 136.569 70.3085 134.326 71.2095 133.527C74.3998 130.699 77.3674 128.171 80.2826 125.044Z" fill="#FDFDFD"/>
<path d="M100.2 93.7264C101.393 93.649 101.96 92.6566 102.985 92.4782C103.198 92.4411 105.005 93.0526 105.456 93.1469C104.596 94.0265 103.812 94.8282 102.896 95.6547L103.428 96.0661C102.456 96.8754 101.033 97.8202 100.488 98.8428L99.8559 98.8441C96.8581 101.342 93.8322 103.807 90.7786 106.236C89.8338 106.736 88.1525 108.16 87.531 108.418C86.5284 109.163 85.6827 109.718 84.6338 110.387C84.0125 110.719 83.6565 110.756 83.4152 111.285L83.9305 111.784C83.4579 112.148 82.9827 112.509 82.505 112.866C81.3574 113.598 79.4779 114.557 78.5771 115.336C78.192 116.119 77.3383 117.119 77.2287 117.43C74.4481 118.967 71.3996 120.929 68.7359 122.426C67.2847 123.242 60.5758 124.587 58.7835 124.733C55.9554 125.357 53.0825 126.063 50.2578 126.725C51.8216 125.899 54.2206 124.422 55.8927 124.348L55.8851 123.892C56.0735 123.277 57.0859 122.817 57.7454 122.395C61.3235 119.805 65.0308 117.47 68.666 114.97C70.6067 113.635 72.5078 112.26 74.4841 110.977L85.7652 103.345C87.5906 102.123 90.2055 100.282 92.0707 99.2426C93.2184 98.2744 96.9929 95.8076 98.2944 95.0151C98.5538 94.6986 99.7813 93.939 100.2 93.7264Z" fill="#AADC17"/>
<path d="M78.5771 115.336C78.192 116.119 77.3383 117.119 77.2287 117.43C74.4481 118.967 71.3996 120.93 68.7359 122.427C67.2847 123.242 60.5758 124.587 58.7835 124.733C55.9554 125.358 53.0825 126.063 50.2578 126.725C51.8216 125.899 54.2206 124.422 55.8927 124.349L55.8851 123.892C56.0735 123.277 57.0859 122.817 57.7454 122.395L57.8015 122.609C61.4374 122.566 66.071 118.281 69.6529 117.626C72.2014 117.16 74.5282 117.113 77.0426 116.126L78.5771 115.336Z" fill="#8DC613"/>
<path d="M77.0442 116.129C75.6854 117.838 68.5653 120.282 66.1622 120.945C65.405 121.235 64.3172 121.691 63.5708 121.92C63.1821 122.109 62.3099 121.874 61.829 121.79C59.4204 122.95 58.4747 123.241 55.8867 123.895C56.0751 123.28 57.0875 122.82 57.747 122.398L57.8031 122.612C61.439 122.569 66.0726 118.284 69.6545 117.629C72.2029 117.163 74.5297 117.115 77.0442 116.129Z" fill="#A2D723"/>
<path d="M61.832 121.787C63.7086 120.723 67.8197 118.358 69.8155 118.059L69.8774 118.249C68.5948 119.318 64.0338 120.66 63.4678 121.632L63.5738 121.917C63.1852 122.106 62.3129 121.871 61.832 121.787Z" fill="#2A3B0E"/>
<path d="M66.1622 120.945L66.2461 121.258C65.2994 122.451 60.3606 123.633 58.8605 123.985C57.9078 124.177 56.8479 124.457 55.8943 124.352L55.8867 123.895C58.4747 123.241 59.4204 122.951 61.829 121.79C62.3099 121.874 63.1822 122.109 63.5708 121.92C64.3172 121.691 65.405 121.235 66.1622 120.945Z" fill="#131710"/>
<path d="M100.202 93.7264C101.395 93.649 101.962 92.6566 102.987 92.4782C103.2 92.4411 105.007 93.0526 105.458 93.1469C104.598 94.0265 103.815 94.8282 102.898 95.6547L103.43 96.0661C102.458 96.8754 101.036 97.8202 100.49 98.8428L99.858 98.8441C96.8602 101.342 93.8343 103.807 90.7807 106.236C89.8359 106.736 88.1546 108.16 87.5331 108.418L87.4961 108.24C87.7863 107.991 88.5049 106.229 89.4178 105.255C91.095 103.467 92.7468 102.007 94.547 100.357L94.561 100.019C94.9415 99.5782 98.2655 96.6188 99.1526 95.7082L98.8666 95.7621L98.2965 95.0151C98.5559 94.6986 99.7834 93.939 100.202 93.7264Z" fill="#A2D723"/>
<path d="M102.9 95.6602L103.432 96.0715C102.459 96.8808 101.037 97.8256 100.492 98.8482L99.8594 98.8496C100.411 97.9201 102.074 96.3818 102.9 95.6602Z" fill="#2A3B0E"/>
<path d="M98.2983 95.0195L98.8684 95.7665L99.1545 95.7126C98.2673 96.6232 94.9434 99.5826 94.5628 100.024C93.0224 100.742 89.0392 105.477 87.5085 106.77C86.7997 107.368 85.8895 107.828 85.0744 108.292C85.7546 107.451 88.0238 106.137 88.7919 104.925L88.605 104.834C87.0518 105.371 84.3954 105.795 83.394 106.713C82.6604 107.384 82.3394 107.647 81.337 107.98L81.2461 107.83C81.8215 107.504 82.4269 107.167 82.9274 106.735C86.5235 103.633 91.5788 101.487 95.1112 98.4285C93.4682 98.6384 93.3161 99.7319 92.0746 99.2471C93.2224 98.2788 96.9968 95.812 98.2983 95.0195Z" fill="#D0ED36"/>
<path d="M98.2979 95.0195L98.868 95.7665C98.1902 96.1657 98.3793 96.1748 97.6566 96.1982L97.6592 96.1389C97.0559 96.4206 96.8231 96.4817 96.4601 97.0623L97.0255 96.7778C96.1965 97.7947 95.7732 97.7628 95.1108 98.4285C93.4678 98.6384 93.3157 99.7319 92.0742 99.2471C93.2219 98.2788 96.9964 95.812 98.2979 95.0195Z" fill="#B8E123"/>
<path d="M57.7461 122.399C61.3242 119.809 65.0315 117.474 68.6667 114.974C70.6074 113.639 72.5085 112.264 74.4848 110.98L74.5379 112.051L74.7567 112.138L75.871 111.532L75.998 111.678C75.5144 112.805 71.487 115.145 70.2826 115.924C69.9529 116.137 68.2859 115.653 68.1795 115.711C65.6345 117.11 60.0164 121.43 57.8022 122.613L57.7461 122.399Z" fill="#D0ED36"/>
<path d="M141.454 65.251C143.19 63.6282 147.886 63.2813 150.337 62.8854C154.909 62.1462 159.756 60.9394 164.316 60.4844L164.728 60.7204L164.858 61.2939C161.289 62.3019 153.485 64.1947 150.777 65.9603L148.595 67.403C146.828 68.5865 143.612 70.4957 142.072 71.6281L142.864 71.9608C143.481 71.6544 144.453 71.0427 145.078 70.678C145.739 70.8042 145.641 70.6739 145.934 71.0803C141.055 74.4073 136.113 77.6426 131.112 80.7842C128.877 82.1787 126.593 83.6994 124.255 84.884C123.596 85.4714 123.091 85.9826 122.271 86.0878L121.832 85.8495C121.781 85.4423 121.758 85.3242 121.542 84.9777C117.367 87.7467 113.208 90.5396 109.066 93.3564C107.417 94.4794 102.137 98.1965 100.488 98.843C101.034 97.8203 102.456 96.8755 103.428 96.0662C110.622 90.6007 117.357 84.7504 124.382 79.1648C124.755 78.7323 125.61 78.1161 126.1 77.7244C131.25 73.6076 136.284 69.3421 141.454 65.251Z" fill="#92CC15"/>
<path d="M141.456 65.251C143.192 63.6282 147.888 63.2813 150.339 62.8854C154.911 62.1462 159.758 60.9394 164.318 60.4844L164.73 60.7204L164.86 61.2939C161.291 62.3019 153.487 64.1947 150.779 65.9603L148.597 67.403C146.83 68.5865 143.614 70.4957 142.074 71.6281C140.997 72.1498 139.619 73.115 138.589 73.7901C138.965 72.903 140.211 71.4435 140.876 70.6453C139.702 71.2492 139.362 71.0013 138.485 71.336C137.236 72.496 130.842 77.1522 129.449 77.4419C128.933 77.9224 126.185 80.1032 125.624 80.2088L126.029 79.2461C125.522 79.1038 125.461 79.2111 124.905 79.3521C124.301 79.877 124.73 80.3479 124.152 80.3303C124.197 79.785 124.184 79.6631 124.384 79.1648C124.757 78.7323 125.612 78.1161 126.102 77.7244C131.252 73.6076 136.286 69.3421 141.456 65.251Z" fill="#A2D723"/>
<path d="M141.456 65.251C143.192 63.6282 147.888 63.2813 150.339 62.8854C154.911 62.1462 159.758 60.9394 164.318 60.4844L164.73 60.7204L164.86 61.2939C161.291 62.3019 153.487 64.1947 150.779 65.9603C150.24 65.9328 149.453 65.6306 148.914 65.4554C149.838 64.9798 150.635 64.5326 151.529 64.0086C150.046 64.1023 144.131 64.9432 142.92 65.4573C140.789 67.0414 128.971 76.222 128.308 77.8752C128.684 77.7036 129.057 77.4842 129.449 77.4419C128.933 77.9224 126.185 80.1032 125.624 80.2088L126.029 79.2461C125.522 79.1038 125.461 79.2111 124.905 79.3521C124.301 79.877 124.73 80.3479 124.152 80.3303C124.197 79.785 124.184 79.6631 124.384 79.1648C124.757 78.7323 125.612 78.1161 126.102 77.7244C131.252 73.6076 136.286 69.3421 141.456 65.251Z" fill="#B8E123"/>
<path d="M146.144 67.0567L146.362 66.9648L148.601 67.407C146.834 68.5904 143.618 70.4997 142.078 71.6321C141.001 72.1538 139.624 73.119 138.594 73.7941C138.97 72.907 140.215 71.4475 140.88 70.6493C141.273 70.5433 145.177 67.6551 146.144 67.0567Z" fill="#8DC613"/>
<path d="M138.484 71.3366C140.164 69.5285 143.556 66.4698 146.139 67.0533C145.172 67.6517 141.268 70.54 140.875 70.646C139.701 71.2499 139.361 71.0019 138.484 71.3366Z" fill="#D0ED36"/>
<path d="M148.912 65.457C149.451 65.6322 150.239 65.9343 150.777 65.9619L148.595 67.4046L146.355 66.9624C146.769 66.574 148.309 65.7994 148.912 65.457Z" fill="#8DC613"/>
<path d="M145.082 70.6758C145.744 70.802 145.646 70.6716 145.938 71.0781C141.06 74.405 136.117 77.6403 131.117 80.7819C128.882 82.1764 126.597 83.6972 124.26 84.8817C124.137 84.614 124.178 84.7546 124.203 84.4441C126.335 82.7979 129.436 80.4426 131.667 79.0307C132.841 78.2631 134.874 77.003 135.878 76.14L135.76 75.8708C136.632 75.2752 137.855 74.4988 138.592 73.7879C139.622 73.1128 140.999 72.1476 142.076 71.6259L142.868 71.9586C143.486 71.6521 144.457 71.0405 145.082 70.6758Z" fill="#8DC613"/>
<path d="M138.589 73.7909C139.619 73.1158 140.996 72.1506 142.073 71.6289L142.865 71.9617C140.543 73.3688 138.213 74.7626 135.875 76.1431L135.758 75.8738C136.63 75.2782 137.852 74.5018 138.589 73.7909Z" fill="#20290B"/>
<path d="M131.472 78.6562L131.664 79.0368C129.432 80.4487 126.332 82.804 124.2 84.4502C124.175 84.7607 124.134 84.6201 124.257 84.8879C123.598 85.4753 123.092 85.9864 122.272 86.0917L121.833 85.8534C121.783 85.4462 121.76 85.3281 121.543 84.9816C124.847 82.949 128.159 80.7257 131.472 78.6562Z" fill="#131710"/>
<path d="M131.473 78.6544C131.784 78.3569 135.336 76.0449 135.758 75.875L135.875 76.1443C134.871 77.0072 132.839 78.2674 131.664 79.0349L131.473 78.6544Z" fill="#6FA010"/>
<path d="M137.66 124.576L162.075 123.238C161.535 124.642 160.233 127.699 159.868 129.018C157.425 129.145 154.606 129.351 152.191 129.376C151.282 131.79 150.394 134.212 149.528 136.641C147.42 136.252 142.441 136.982 140.717 136.525C141.587 134.333 142.348 131.957 143.183 129.884C140.604 130.238 137.991 129.969 135.602 130.34C136.405 128.298 137.002 126.688 137.66 124.576Z" fill="#FDFDFD"/>
<path d="M97.259 140.352C98.3553 141.849 102.599 140.439 104.778 140.881C102.991 144.155 99.7425 148.346 98.3138 151.574C95.1593 152.198 91.9342 152.44 88.7695 153.012C88.1471 153.124 87.5243 153.218 86.8928 153.258C86.6789 149.583 86.2557 146.132 86.0234 142.586C87.9999 142.5 90.021 142.245 92.0054 142.141C92.7671 142.101 94.1941 142.171 94.6295 141.688C94.823 142.359 94.7806 143.749 94.789 144.504C95.7058 143.053 96.1829 141.81 97.259 140.352Z" fill="#D7D6D6"/>
<path d="M165.531 157.137C173.297 155.415 181.105 153.615 188.524 150.697C190.451 149.939 193.178 149.101 194.85 147.925C203.139 142.094 204.56 136.216 197.595 128.648C200.757 130.754 204.06 133.4 204.927 137.3C205.343 139.162 204.674 141.816 203.508 143.277C195.369 153.487 178.048 156.256 165.99 157.985L165.531 157.137Z" fill="#92CC12"/>
<path d="M97.2617 140.352C99.4608 136.606 101.68 132.712 103.95 129.03C104.191 128.638 112.658 127.506 113.735 127.375C110.886 131.049 107.281 136.799 104.781 140.881C102.602 140.439 98.358 141.849 97.2617 140.352Z" fill="#FDFDFD"/>
<path d="M140.718 136.526C142.441 136.983 147.42 136.253 149.529 136.642C148.384 140.345 146.834 143.772 145.752 147.574C143.12 147.817 139.108 147.888 136.453 147.881C136.941 145.967 139.779 138.419 140.718 136.526Z" fill="#D7D6D6"/>
<path d="M84.8125 132.132C87.5219 131.456 91.261 131.084 94.389 130.367C94.3004 134.078 94.4905 137.975 94.6309 141.688C94.1955 142.171 92.7685 142.101 92.0068 142.141C90.0224 142.244 88.0013 142.499 86.0248 142.586C85.7669 139.954 85.3667 134.49 84.8125 132.132Z" fill="#FDFDFD"/>
<path d="M101.518 100.523L102.088 100.944C94.9913 106.363 88.2633 112.131 81.1564 117.507C78.3625 119.62 74.5592 122.571 71.4414 124.043C72.6169 122.685 76.2358 118.645 77.5721 117.648L77.2333 117.435C77.3429 117.125 78.1966 116.124 78.5817 115.341C79.4825 114.563 81.362 113.604 82.5095 112.872C82.9872 112.514 83.4625 112.154 83.935 111.79L83.4198 111.291C83.6611 110.762 84.017 110.725 84.6383 110.393C85.6872 109.724 86.533 109.169 87.5356 108.424C88.1571 108.165 89.8384 106.742 90.7832 106.242C91.3274 106.221 91.5491 106.153 91.9925 106.419C94.6124 104.487 98.575 102.494 101.518 100.523Z" fill="#A2D723"/>
<path d="M83.9283 111.785L84.3631 111.77L84.391 111.996C83.8357 112.461 83.2773 112.921 82.7159 113.378C81.5771 114.359 78.7087 116.93 77.5654 117.643L77.2266 117.43C77.3362 117.119 78.1899 116.119 78.575 115.336C79.4757 114.558 81.3553 113.599 82.5028 112.866C82.9805 112.509 83.4557 112.149 83.9283 111.785Z" fill="#8DC613"/>
<path d="M87.5301 108.42C88.1516 108.162 89.8329 106.739 90.7777 106.238C91.3219 106.217 91.5435 106.149 91.987 106.415C90.7972 107.163 85.8926 110.443 84.7923 110.51L84.6328 110.39C85.6817 109.72 86.5275 109.165 87.5301 108.42Z" fill="#2A3B0E"/>
<path d="M63.3906 73.4351C63.864 73.2507 64.4027 73.1177 64.8959 72.9805C65.6318 73.4387 66.636 73.4045 67.4814 73.2981C70.0279 74.8515 72.2691 74.5486 75.0179 77.0882C81.0773 82.687 87.0939 88.4555 92.6564 94.5153C92.8924 94.7725 92.7023 95.3344 92.5576 95.5899C92.4299 95.6067 92.3023 95.6233 92.1748 95.6402C85.2937 89.8624 70.7174 76.2012 63.3906 73.4351Z" fill="#A2D723"/>
<path d="M128 103.647C129.845 103.266 129.404 103.166 130.697 101.695C131.289 101.76 131.284 101.956 131.793 102.492L143.482 114.281C144.875 115.679 146.596 117.235 147.908 118.609C144.465 118.624 142.787 118.61 140.098 115.942C139.151 115.004 137.755 113.436 136.944 112.41C136.042 111.786 132.473 107.92 131.625 106.936C131.454 106.832 130.712 106.151 130.515 105.978C129.655 105.23 128.829 104.432 128 103.647Z" fill="#87BC15"/>
<path d="M131.621 106.941C132.583 107.095 132.377 107.148 133.216 107.94C133.406 107.198 133.252 107.292 133.733 106.981C134.733 107.072 135.997 108.002 136.287 108.983L136.162 109.382C135.456 109.256 135.235 109.082 134.695 109.345C134.76 110.322 137.007 111.643 137.264 112.368L136.941 112.415C136.038 111.791 132.47 107.925 131.621 106.941Z" fill="#A2D723"/>
<path d="M128 103.647C129.845 103.266 129.404 103.166 130.697 101.695C131.289 101.76 131.284 101.956 131.793 102.492C130.626 103.155 131.047 102.4 130.528 103.101C130.574 104.491 131.504 104.057 131.769 105.125C131.374 105.735 131.295 105.62 130.515 105.978C129.655 105.23 128.829 104.432 128 103.647Z" fill="#6FA010"/>
<path d="M72.1953 71.8264C80.6131 70.2265 89.3717 69.0444 97.8681 67.5195C98.6789 68.4896 99.5047 69.4473 100.345 70.3917L99.892 70.9264C99.0982 70.3295 98.459 69.8152 97.5682 69.3579C95.3189 69.4031 92.5187 69.9898 90.2208 70.2517C84.5427 70.8985 78.3889 71.636 72.7731 72.6068C72.3452 72.3226 72.4599 72.3581 72.1953 71.8264Z" fill="#FDFDFD"/>
<path d="M112.946 114.277C115.494 116.508 118.245 119.146 120.754 121.262C123.482 120.965 126.705 121.064 129.506 121.003C130.003 121.095 130.799 121.163 131.124 121.489C130.639 121.807 130.33 121.845 129.772 121.985C126.651 122.273 122.773 122.709 119.69 123.205C117.63 121.233 115.649 119.182 113.751 117.055C113.715 115.913 112.841 116.143 112.946 114.277Z" fill="#A2D723"/>
<path d="M28.6094 169.727C33.3537 165.503 35.187 166.073 41.0707 164.77C41.164 165.116 41.3012 165.703 41.418 166.019C37.1198 167.154 32.849 168.39 28.6094 169.727Z" fill="#D0ED36"/>
<path d="M100.203 93.7247C100.931 93.0428 104.331 90.674 105.302 89.9639C108.293 87.7858 111.221 85.5208 114.08 83.1719C112.324 85.8479 107.832 89.6213 105.272 91.8956C105.798 91.6693 106.115 91.5612 106.665 91.3983L106.862 91.5614C106.536 92.2257 106.005 92.6414 105.459 93.1452C105.008 93.0509 103.202 92.4394 102.988 92.4765C101.963 92.6549 101.396 93.6473 100.203 93.7247Z" fill="#8DC613"/>
<path d="M106.466 119.879C107.099 120.281 109.306 122.433 109.956 123.051C108.136 123.259 106.645 123.473 104.843 123.802C103.708 124.13 102.565 124.428 101.414 124.697C103.751 122.897 104.583 122.144 106.466 119.879Z" fill="#A2D723"/>
<path d="M50.7502 162.695C51.144 162.951 51.1513 162.928 51.3819 163.323C48.1169 164.205 44.6454 165.081 41.4176 166.022C41.3008 165.705 41.1637 165.119 41.0703 164.772C43.4393 164.095 48.0492 163.318 50.7502 162.695Z" fill="#8DC613"/>
<path d="M113.749 117.057L113.642 116.965C112.793 116.224 106.188 109.313 106.137 108.617C107.444 109.16 111.702 113.161 112.945 114.279C112.84 116.145 113.714 115.915 113.749 117.057Z" fill="#D0ED36"/>
<path d="M85.6406 166.133C85.0989 166.411 80.6858 167.736 80.0086 167.892L79.7812 167.721C80.3065 165.936 84.0738 165.079 85.7914 165.35C85.5473 165.835 85.5992 165.584 85.6406 166.133Z" fill="#131710"/>
<path d="M158.691 158.208C160.974 157.823 163.238 157.412 165.537 157.141L165.996 157.988C163.549 158.374 161.53 158.661 159.056 158.89L158.691 158.208Z" fill="#8DC613"/>
<path d="M64.8945 72.9834C66.6911 72.5259 70.4064 71.9506 72.1953 71.8281C72.4598 72.3598 72.3451 72.3243 72.7731 72.6085C70.9546 72.7808 69.2876 73.0274 67.48 73.301C66.6346 73.4074 65.6305 73.4416 64.8945 72.9834Z" fill="#D7D6D6"/>
<path d="M150.684 159.312C153.021 158.624 156.201 158.46 158.69 158.203L159.054 158.885C156.441 159.194 153.471 159.612 150.869 159.833L150.684 159.312Z" fill="#6FA010"/>
<path d="M50.75 162.697C54.0207 161.819 57.0819 161.497 60.2237 160.66C58.204 161.706 53.5615 163.152 51.3817 163.325C51.1512 162.93 51.1438 162.953 50.75 162.697Z" fill="#617918"/>
<path d="M102.798 113.809C103.388 114.242 103.703 114.868 103.444 115.559C102.664 116.155 101.65 116.304 100.644 116.63C100.36 116.747 100.511 116.708 100.156 116.64C100.241 115.775 102.05 114.452 102.798 113.809Z" fill="#8E9087"/>
<path d="M129.508 121.004C131.133 120.761 134.749 120.851 136.511 120.857L135.682 121.457C133.65 121.684 131.824 121.874 129.774 121.986C130.332 121.846 130.64 121.809 131.126 121.49C130.801 121.164 130.005 121.097 129.508 121.004Z" fill="#8DC613"/>
<path d="M85.7914 165.347C87.1301 165.017 91.1334 163.63 92.0182 163.902L92.0736 164.17C91.4724 164.831 86.7649 165.871 85.6406 166.129C85.5992 165.58 85.5472 165.831 85.7914 165.347Z" fill="#2A3B0E"/>
<path d="M164.316 60.4839C165.766 59.9586 167.257 59.7857 168.776 59.5742C168.882 60.0551 168.878 59.8677 168.615 60.3969C167.364 60.7059 166.113 61.0046 164.859 61.2933L164.728 60.7199L164.316 60.4839Z" fill="#AADC17"/>
<path d="M197.699 142.142C198.956 140.667 199.383 139.332 200.322 138.297L200.528 138.325C200.384 140.296 199.63 141.189 198.281 142.561L197.699 142.142Z" fill="#6FA010"/>
<path d="M145.078 70.6785C146.607 69.772 148.691 68.4769 150.316 67.7852C149.555 68.7955 147.034 70.8735 145.934 71.0807C145.641 70.6743 145.739 70.8047 145.078 70.6785Z" fill="#6FA010"/>
<path d="M194.332 145.065C195.681 144.11 196.503 143.294 197.701 142.148L198.283 142.568C197.006 143.828 196.235 144.451 194.704 145.438L194.332 145.065Z" fill="#2A3B0E"/>
<path d="M136.509 120.857C137.336 120.867 138.185 120.867 139.009 120.895C139.657 120.848 141.416 120.791 141.951 121.066C140.592 121.34 137.712 121.411 136.26 121.413L135.68 121.456L136.509 120.857Z" fill="#2A3B0E"/>
<path d="M136.509 120.855C137.336 120.865 138.185 120.865 139.009 120.893C138.175 121.371 137.229 121.16 136.26 121.412L135.68 121.455L136.509 120.855Z" fill="#617918"/>
<path d="M101.512 100.52C102.589 99.559 104.445 98.4233 105.778 97.8398C105.131 98.4676 102.841 100.645 102.082 100.941L101.512 100.52Z" fill="#617918"/>
<path d="M168.778 59.5762C170.074 59.2635 172.357 58.8351 173.674 58.6953C171.935 59.4693 170.467 59.9271 168.617 60.399C168.88 59.8697 168.884 60.0571 168.778 59.5762Z" fill="#6FA010"/>
<path d="M100.348 70.3906C101.16 71.0524 101.961 72.0179 102.668 72.8125L102.059 73.0935C101.395 72.3832 100.591 71.6198 99.8945 70.9254L100.348 70.3906Z" fill="#B0B6B6"/>
<path d="M150.865 159.833C149.709 159.846 147.602 159.912 146.562 159.571C147.985 159.298 149.272 159.532 150.68 159.312L150.865 159.833Z" fill="#40630D"/>
<path d="M194.705 145.435C194.212 145.821 192.948 146.739 192.324 146.52C192.71 145.849 193.613 145.475 194.333 145.062L194.705 145.435Z" fill="#131710"/>
<path d="M102.664 72.8086C103.663 73.8127 104 74.2826 104.529 75.6031C103.695 74.7743 102.87 73.9363 102.055 73.0896L102.664 72.8086Z" fill="#5F5F5E"/>
<path d="M136.327 170.728C139.59 171.755 143.479 170.854 147.065 170.711C147.751 171.173 148.088 171.428 148.976 171.369C144.11 172.967 137.858 173.921 132.78 174.907C130.796 175.293 128.338 175.466 126.422 175.935C126.514 175.463 126.491 175.023 126.491 174.542C127.424 174.113 128.561 173.848 129.642 173.384L129.727 173.135L129.155 173.016L128.808 172.242C131.274 171.978 133.941 171.4 136.327 170.728Z" fill="#2A3B0E"/>
<path d="M41.8047 120.55C43.1907 119.279 44.5457 116.886 46.2512 115.628C49.2925 113.386 51.959 112.972 55.4823 110.922L55.6545 111.746C51.5055 115.072 47.1854 118.179 42.7115 121.053C42.4024 120.796 42.1658 120.714 41.8047 120.55Z" fill="#AADC17"/>
<path d="M57.7155 178.126C58.0834 178.117 58.1606 178.154 58.5127 178.236L58.5533 178.458C58.1748 178.689 53.8536 179.846 53.0754 179.945C49.5038 180.4 45.6196 183.253 42.3546 183.514C41.739 183.359 41.9245 183.496 41.5508 183.052C42.5764 180.763 54.6213 179.378 57.7155 178.126Z" fill="#101010"/>
<path d="M195.56 118.13L195.83 118.051C196.575 118.546 198.243 121.724 198.812 122.682L198.748 122.893L198.211 122.65C197.113 122.012 195.792 121.355 194.653 120.758C194.309 120.077 193.854 119.38 193.926 118.685C194.504 118.191 194.7 118.296 195.56 118.13Z" fill="#20290B"/>
<path d="M36.4181 177.395L36.7718 177.664C36.2443 178.307 35.8015 177.982 35.3452 178.73C34.6871 179.108 25.4244 181.769 24.6172 181.662C25.4437 180.782 34.826 177.787 36.4181 177.395Z" fill="#AADC17"/>
<path d="M40.8052 109.117C40.8397 109.354 40.8819 109.644 40.688 109.819C38.9655 111.376 38.2021 113.222 36.9703 115.106C36.3713 115.469 35.8046 115.43 35.1015 115.462C34.5346 113.321 37.7516 112.122 39.007 110.844C39.6047 110.236 40.1542 109.675 40.8052 109.117Z" fill="#131710"/>
<path d="M169.665 112.3C169.627 109.563 171.084 109.27 173.011 110.928C172.66 112.161 172.635 112.705 171.641 113.501C171.101 112.979 170.343 112.647 169.665 112.3Z" fill="#6FA010"/>
<path d="M172.789 165.984L173.01 166.102L172.94 166.404C169.004 168.174 167.664 167.85 163.762 168.93L163.438 168.788L163.458 168.534C165.856 167.226 170.926 167.06 172.789 165.984Z" fill="#40630D"/>
<path d="M147.062 170.712C147.988 170.567 155.114 169.279 155.486 169.338L155.409 169.609C154.666 169.876 154.352 169.76 153.625 170.16C152.332 170.872 150.437 171.093 148.973 171.37C148.085 171.429 147.748 171.174 147.062 170.712Z" fill="#101010"/>
<path d="M177.043 115.305C178.11 115.455 184.521 117.054 184.996 117.593C183.341 117.462 178.611 116.613 176.566 116.32C176.976 116.04 176.895 115.897 177.043 115.305Z" fill="#101010"/>
<path d="M178.444 167.367C178.718 167.474 178.837 167.616 179.051 167.814C179.302 169.133 178.038 169.557 176.993 169.894C176.345 169.69 176.543 169.847 176.203 169.339C176.315 167.999 177.32 167.626 178.444 167.367Z" fill="#20290B"/>
<path d="M148.672 94.6686C149.212 94.2554 153.687 90.8931 154.076 90.6641L154.078 90.6675C153.611 91.554 150.386 94.4793 149.362 95.6421L148.672 94.6686Z" fill="#20290B"/>
<path d="M187.581 115.406C188.493 115.345 189.546 115.333 189.901 116.293C189.57 116.974 189.553 116.833 188.828 117.302L188.565 117.484C187.378 117.447 186.594 116.498 187.581 115.406Z" fill="#4B8807"/>
<path d="M25.5108 148.191C26.3365 148.615 26.5542 148.678 26.4911 149.559C26.1759 150.181 25.6536 150.518 25.1047 150.953C24.3228 150.597 24.0979 150.546 23.9961 149.732C24.2818 149.046 24.9133 148.658 25.5108 148.191Z" fill="#101010"/>
<path d="M121.008 176.639C123.003 175.615 124.372 175.222 126.49 174.543C126.49 175.024 126.513 175.464 126.421 175.936C124.907 176.209 122.503 176.523 121.008 176.639Z" fill="#131710"/>
<path d="M55.4766 110.922C57.299 109.643 59.2 108.276 61.3268 107.578C59.6478 108.946 57.4903 110.66 55.6487 111.746L55.4766 110.922Z" fill="#A2D723" fill-opacity="0.94902"/>
<path d="M41.8021 120.551C42.1632 120.714 42.3998 120.797 42.7089 121.054C41.9361 121.751 38.8396 123.815 37.9219 124.401C39.0216 122.673 40.2115 121.757 41.8021 120.551Z" fill="#A2D723" fill-opacity="0.952941"/>
<path d="M129.151 173.02C127.771 173.244 126.378 173.374 124.981 173.409L124.73 173.045L124.635 173.083L124.709 173.388L124.426 173.311L124.484 173.108C126.176 172.443 127.011 172.436 128.804 172.246L129.151 173.02Z" fill="#101010"/>
<path d="M110.936 175.766C111.703 175.872 111.837 175.999 111.916 176.698C111.606 177.435 111.268 177.64 110.649 178.147C109.985 178.082 109.873 177.92 109.734 177.372C109.935 176.689 110.434 176.278 110.936 175.766Z" fill="#A2D723"/>
<path d="M158.193 109.728C158.73 109.71 158.768 109.842 159.03 110.206C159.055 111.22 158.647 111.35 157.895 111.765C157.545 111.466 157.251 111.19 156.918 110.87L156.954 110.576C157.462 110.275 157.73 110.08 158.193 109.728Z" fill="#2A3B0E"/>
<path d="M201.148 159.469C201.834 159.576 201.97 159.661 202.359 160.082C202.206 160.889 202.119 160.767 201.48 161.475C201.082 161.613 201.074 161.579 200.679 161.474L200.488 161.034C200.592 160.215 200.655 160.126 201.148 159.469Z" fill="#101010"/>
<path d="M57.5994 102.686C58.1249 102.656 57.8817 102.606 58.3545 102.845L58.4607 103.295C58.2309 104.097 58.1568 104.182 57.5994 104.798C57.1321 104.446 56.8857 104.295 56.543 103.804C56.7077 103.199 57.0023 103.149 57.5994 102.686Z" fill="#2A3B0E"/>
</svg>
